<svg xmlns="http://www.w3.org/2000/svg" width="300" height="179" viewBox="0 0 300 179">
    <g fill="none" fill-rule="evenodd">
        <g fill-rule="nonzero">
            <g fill="#0D0E0E">
                <path d="M.306 8.533c.487.309 1.056.488 1.828.488 1.021 0 1.864-.524 1.864-1.702C3.998 5.69.2 5.487.2 3.31c0-1.332 1.164-2.165 2.624-2.165.404 0 1.056.06 1.627.274l-.13.75c-.368-.203-.95-.31-1.509-.31-.854 0-1.792.358-1.792 1.428 0 1.667 3.8 1.678 3.8 4.106 0 1.678-1.436 2.344-2.72 2.344-.807 0-1.435-.166-1.875-.357l.082-.846zM11.252 4.331c-.403-.178-.89-.309-1.294-.309-1.46 0-2.28 1.06-2.28 2.534 0 1.38.831 2.535 2.197 2.535.475 0 .914-.107 1.365-.274l.072.703c-.512.178-.986.214-1.555.214-1.948 0-2.897-1.488-2.897-3.177 0-1.869 1.2-3.177 2.992-3.177.724 0 1.247.166 1.46.238l-.06.713zM13.508.666h.748v3.88h.025c.32-.667.997-1.167 1.888-1.167 1.627 0 2.066 1.083 2.066 2.582V9.59h-.748V5.974c0-1.047-.201-1.95-1.436-1.95-1.33 0-1.794 1.26-1.794 2.32v3.248h-.747V.666h-.002zM27.257 9.591L26.355 9.591 24.705 4.343 24.68 4.343 23.03 9.591 22.127 9.591 20.181 3.522 20.999 3.522 22.59 8.771 22.614 8.771 24.3 3.522 25.203 3.522 26.805 8.771 26.829 8.771 28.503 3.522 29.251 3.522zM35.26 9.401c-.522.215-1.2.333-1.758.333-2.006 0-2.754-1.356-2.754-3.177 0-1.856 1.021-3.177 2.553-3.177 1.71 0 2.41 1.38 2.41 3.01v.381h-4.144c0 1.286.69 2.321 1.994 2.321.546 0 1.343-.227 1.699-.452v.761zm-.369-3.273c0-1.059-.427-2.106-1.542-2.106-1.105 0-1.781 1.106-1.781 2.106h3.323zM38.808 1.904h-.747V.905h.747v1zm-.747 1.619h.747v6.07h-.747v-6.07zM41.065 8.961L44.71 4.165 41.207 4.165 41.207 3.523 45.577 3.523 45.577 4.166 41.933 8.949 45.577 8.949 45.577 9.592 41.066 9.592 41.066 8.961zM51.88 9.401c-.522.215-1.199.333-1.757.333-2.006 0-2.754-1.356-2.754-3.177 0-1.856 1.021-3.177 2.553-3.177 1.71 0 2.41 1.38 2.41 3.01v.381h-4.144c0 1.286.689 2.321 1.994 2.321.546 0 1.342-.227 1.699-.452v.761zm-.368-3.273c0-1.059-.428-2.106-1.542-2.106-1.105 0-1.781 1.106-1.781 2.106h3.323zM54.682 4.88c0-.667 0-.917-.047-1.357h.748v1.165h.023c.273-.677.784-1.308 1.556-1.308.178 0 .392.036.522.072v.785c-.155-.048-.356-.071-.546-.071-1.187 0-1.508 1.333-1.508 2.428v3h-.748V4.878zM60.31 1.904h-.749V.905h.749v1zm-.749 1.619h.749v6.07h-.749v-6.07zM62.661 8.711c.451.227.998.381 1.58.381.712 0 1.34-.393 1.34-1.083 0-1.439-2.909-1.213-2.909-2.975 0-1.202.974-1.654 1.972-1.654.32 0 .962.072 1.495.275l-.07.654c-.393-.179-.926-.286-1.342-.286-.772 0-1.306.238-1.306 1.011 0 1.131 2.98.988 2.98 2.975 0 1.286-1.2 1.725-2.114 1.725-.581 0-1.164-.071-1.698-.285l.072-.738zM72.61 4.331c-.404-.178-.89-.309-1.295-.309-1.46 0-2.28 1.06-2.28 2.534 0 1.38.831 2.535 2.197 2.535.475 0 .914-.107 1.365-.274l.071.703c-.51.178-.985.214-1.555.214-1.947 0-2.896-1.488-2.896-3.177 0-1.869 1.2-3.177 2.992-3.177.724 0 1.247.166 1.46.238l-.06.713zM74.865.666h.748v3.88h.024c.32-.667.997-1.167 1.887-1.167 1.628 0 2.066 1.083 2.066 2.582V9.59h-.747V5.974c0-1.047-.201-1.95-1.436-1.95-1.33 0-1.793 1.26-1.793 2.32v3.248h-.748V.666h-.001zM86.454 9.401c-.523.215-1.2.333-1.758.333-2.006 0-2.754-1.356-2.754-3.177 0-1.856 1.021-3.177 2.552-3.177 1.71 0 2.41 1.38 2.41 3.01v.381H82.76c0 1.286.69 2.321 1.995 2.321.546 0 1.342-.227 1.699-.452v.761zm-.37-3.273c0-1.059-.427-2.106-1.542-2.106-1.105 0-1.78 1.106-1.78 2.106h3.323zM93.209 1.286L97.268 1.286 97.268 2 94.027 2 94.027 4.964 97.102 4.964 97.102 5.679 94.027 5.679 94.027 8.88 97.411 8.88 97.411 9.594 93.209 9.594 93.209 1.286zM100.735 1.904h-.748V.905h.748v1zm-.747 1.619h.749v6.07h-.749v-6.07zM108.346 9.591h-.749v-.963h-.023c-.404.773-1.021 1.106-1.888 1.106-1.662 0-2.492-1.38-2.492-3.177 0-1.844.712-3.177 2.492-3.177 1.188 0 1.781.869 1.888 1.167h.023V.667h.749V9.59zm-2.54-.499c1.33 0 1.791-1.429 1.791-2.535s-.463-2.534-1.792-2.534c-1.424 0-1.793 1.356-1.793 2.534 0 1.179.368 2.535 1.793 2.535zM115.873 9.092c0 1.69-.76 3.07-2.838 3.07-.795 0-1.52-.227-1.829-.322l.06-.749c.461.24 1.127.429 1.78.429 1.924 0 2.09-1.404 2.09-3.118h-.025c-.403.881-1.068 1.19-1.84 1.19-1.936 0-2.553-1.69-2.553-3.034 0-1.844.713-3.177 2.493-3.177.807 0 1.33.107 1.888.833h.023v-.691h.749v5.57h.002zm-2.589-.143c1.354 0 1.84-1.286 1.84-2.392 0-1.463-.427-2.534-1.792-2.534-1.424 0-1.793 1.356-1.793 2.534 0 1.19.475 2.392 1.745 2.392zM122.665 9.401c-.523.215-1.2.333-1.758.333-2.006 0-2.754-1.356-2.754-3.177 0-1.856 1.021-3.177 2.552-3.177 1.71 0 2.41 1.38 2.41 3.01v.381h-4.144c0 1.286.69 2.321 1.995 2.321.546 0 1.342-.227 1.699-.452v.761zm-.369-3.273c0-1.059-.428-2.106-1.543-2.106-1.104 0-1.782 1.106-1.782 2.106h3.325zM125.466 4.95c0-.464 0-.94-.047-1.428h.724v1.083h.024c.249-.547.7-1.226 1.958-1.226 1.497 0 2.067.999 2.067 2.332V9.59h-.748V5.903c0-1.142-.403-1.88-1.437-1.88-1.365 0-1.793 1.202-1.793 2.214v3.355h-.747V4.951h-.001zM135.355 3.38c1.96 0 2.826 1.523 2.826 3.177 0 1.654-.867 3.177-2.826 3.177-1.958 0-2.826-1.523-2.826-3.177 0-1.654.868-3.177 2.826-3.177zm0 5.712c1.306 0 2.006-1.13 2.006-2.535 0-1.404-.7-2.534-2.006-2.534-1.305 0-2.006 1.13-2.006 2.534s.7 2.535 2.006 2.535zM140.057 8.711c.451.227.997.381 1.58.381.713 0 1.34-.393 1.34-1.083 0-1.439-2.909-1.213-2.909-2.975 0-1.202.974-1.654 1.972-1.654.32 0 .962.072 1.496.275l-.072.654c-.392-.179-.925-.286-1.34-.286-.772 0-1.307.238-1.307 1.011 0 1.131 2.98.988 2.98 2.975 0 1.286-1.2 1.725-2.114 1.725-.58 0-1.163-.071-1.697-.285l.071-.738zM145.602 8.711c.45.227.997.381 1.58.381.712 0 1.34-.393 1.34-1.083 0-1.439-2.91-1.213-2.91-2.975 0-1.202.974-1.654 1.972-1.654.321 0 .963.072 1.496.275l-.071.654c-.392-.179-.926-.286-1.341-.286-.772 0-1.307.238-1.307 1.011 0 1.131 2.98.988 2.98 2.975 0 1.286-1.2 1.725-2.113 1.725-.582 0-1.164-.071-1.698-.285l.072-.738zM155.67 9.401c-.522.215-1.2.333-1.757.333-2.006 0-2.755-1.356-2.755-3.177 0-1.856 1.022-3.177 2.553-3.177 1.71 0 2.41 1.38 2.41 3.01v.381h-4.144c0 1.286.69 2.321 1.995 2.321.546 0 1.342-.227 1.698-.452v.761zm-.368-3.273c0-1.059-.428-2.106-1.543-2.106-1.105 0-1.78 1.106-1.78 2.106h3.323zM158.471 4.95c0-.464 0-.94-.046-1.428h.724v1.083h.023c.248-.547.7-1.226 1.958-1.226 1.497 0 2.066.999 2.066 2.332V9.59h-.748V5.903c0-1.142-.404-1.88-1.437-1.88-1.366 0-1.793 1.202-1.793 2.214v3.355h-.749V4.951h.002zM165.536 8.711c.451.227.998.381 1.58.381.712 0 1.34-.393 1.34-1.083 0-1.439-2.909-1.213-2.909-2.975 0-1.202.974-1.654 1.972-1.654.32 0 .962.072 1.495.275l-.07.654c-.393-.179-.926-.286-1.342-.286-.772 0-1.306.238-1.306 1.011 0 1.131 2.979.988 2.979 2.975 0 1.286-1.2 1.725-2.113 1.725-.581 0-1.164-.071-1.697-.285l.071-.738zM175.485 4.331c-.403-.178-.89-.309-1.294-.309-1.46 0-2.28 1.06-2.28 2.534 0 1.38.831 2.535 2.197 2.535.475 0 .914-.107 1.365-.274l.071.703c-.51.178-.985.214-1.554.214-1.948 0-2.897-1.488-2.897-3.177 0-1.869 1.2-3.177 2.992-3.177.724 0 1.247.166 1.46.238l-.06.713zM177.74.666h.748v3.88h.025c.32-.667.997-1.167 1.888-1.167 1.627 0 2.066 1.083 2.066 2.582V9.59h-.749V5.974c0-1.047-.203-1.95-1.436-1.95-1.33 0-1.793 1.26-1.793 2.32v3.248h-.747V.666h-.001zM188.746 8.615h-.023c-.332.726-1.176 1.119-1.924 1.119-1.72 0-1.995-1.167-1.995-1.714 0-2.033 2.162-2.128 3.73-2.128h.142v-.31c0-1.037-.368-1.559-1.377-1.559-.629 0-1.222.143-1.782.499v-.726c.464-.226 1.248-.416 1.782-.416 1.496 0 2.125.679 2.125 2.262V8.32c0 .487 0 .856.06 1.272h-.737v-.977zm-.071-2.081h-.213c-1.294 0-2.837.131-2.837 1.464 0 .797.57 1.095 1.258 1.095 1.756 0 1.792-1.535 1.792-2.19v-.37zM192.641 4.165h-1.222v-.642h1.222v-.44c0-1.272.048-2.558 1.604-2.558.236 0 .558.035.7.12l-.049.653c-.154-.083-.38-.13-.593-.13-1.022 0-.914 1.106-.914 1.831v.524h1.365v.643h-1.365v5.426h-.75V4.165h.002zM199.621 4.165h-1.377v3.928c0 .547.203 1 .809 1 .284 0 .474-.06.687-.144l.048.619c-.178.071-.546.166-.914.166-1.33 0-1.377-.917-1.377-2.023V4.165h-1.186v-.642h1.186V2.06l.748-.263v1.725h1.377v.643h-.001zM6.124 18.627c-.523-.273-1.271-.357-1.853-.357-2.148 0-3.36 1.524-3.36 3.582 0 2.094 1.176 3.581 3.36 3.581.546 0 1.378-.071 1.853-.357l.046.715c-.45.274-1.376.357-1.9.357-2.612 0-4.179-1.726-4.179-4.296 0-2.523 1.615-4.295 4.18-4.295.486 0 1.472.084 1.9.309l-.047.761zM11.264 19.794c1.959 0 2.826 1.522 2.826 3.177 0 1.654-.866 3.177-2.826 3.177-1.958 0-2.826-1.523-2.826-3.177 0-1.655.868-3.177 2.826-3.177zm0 5.712c1.306 0 2.006-1.13 2.006-2.535 0-1.404-.7-2.534-2.006-2.534-1.306 0-2.006 1.13-2.006 2.534s.7 2.535 2.006 2.535zM16.428 21.364c0-.464 0-.94-.047-1.428h.724v1.082h.025c.248-.547.7-1.225 1.958-1.225 1.497 0 2.066.999 2.066 2.332v3.879h-.747v-3.69c0-1.142-.404-1.88-1.437-1.88-1.366 0-1.793 1.203-1.793 2.214v3.356h-.749v-4.64zM24.466 20.579h-1.223v-.643h1.223v-.44c0-1.273.047-2.559 1.603-2.559.238 0 .558.036.7.119l-.046.655c-.155-.084-.38-.13-.594-.13-1.02 0-.914 1.106-.914 1.831v.524h1.365v.643h-1.365v5.426h-.748v-5.426zM32.896 25.814c-.522.214-1.199.333-1.757.333-2.006 0-2.754-1.357-2.754-3.177 0-1.857 1.02-3.177 2.552-3.177 1.71 0 2.41 1.38 2.41 3.01v.381h-4.144c0 1.286.69 2.32 1.995 2.32.546 0 1.342-.226 1.698-.451v.761zm-.368-3.272c0-1.06-.428-2.106-1.543-2.106-1.105 0-1.782 1.106-1.782 2.106h3.325zm-1.246-4.95h.937l-1.497 1.713h-.545l1.105-1.714zM40.495 26.005h-.749v-.965h-.023c-.404.774-1.022 1.107-1.888 1.107-1.662 0-2.493-1.38-2.493-3.177 0-1.844.713-3.177 2.493-3.177 1.187 0 1.78.868 1.888 1.166h.023V17.08h.749v8.925zm-2.542-.5c1.33 0 1.792-1.428 1.792-2.534 0-1.106-.463-2.534-1.792-2.534-1.424 0-1.793 1.356-1.793 2.534 0 1.177.369 2.535 1.793 2.535zM47.285 25.814c-.522.214-1.2.333-1.757.333-2.006 0-2.755-1.357-2.755-3.177 0-1.857 1.022-3.177 2.553-3.177 1.71 0 2.41 1.38 2.41 3.01v.381h-4.144c0 1.286.69 2.32 1.995 2.32.546 0 1.342-.226 1.698-.451v.761zm-.368-3.272c0-1.06-.428-2.106-1.543-2.106-1.105 0-1.78 1.106-1.78 2.106h3.323zm-1.247-4.95h.938l-1.496 1.713h-.545l1.103-1.714zM50.088 21.292c0-.667 0-.917-.047-1.356h.747v1.166h.024c.272-.679.784-1.31 1.556-1.31.178 0 .392.036.522.072v.786c-.155-.048-.357-.071-.546-.071-1.187 0-1.508 1.332-1.508 2.428v2.999h-.748v-4.714zM58.445 25.03h-.024c-.332.725-1.175 1.118-1.924 1.118-1.72 0-1.993-1.167-1.993-1.714 0-2.034 2.16-2.129 3.728-2.129h.142v-.309c0-1.036-.369-1.558-1.378-1.558-.629 0-1.223.143-1.78.499v-.726c.463-.226 1.246-.416 1.78-.416 1.496 0 2.125.679 2.125 2.262v2.678c0 .487 0 .856.06 1.272h-.737v-.978h.001zm-.07-2.083h-.215c-1.294 0-2.838.131-2.838 1.464 0 .797.57 1.095 1.259 1.095 1.756 0 1.793-1.535 1.793-2.19v-.369zM64.442 20.579h-1.378v3.927c0 .547.203.999.808.999.285 0 .475-.06.69-.143l.046.618c-.178.072-.546.167-.914.167-1.33 0-1.378-.917-1.378-2.023v-3.547h-1.188v-.642h1.188V18.47l.747-.262v1.726h1.378v.644h.001zM67.457 18.317h-.748v-.999h.748v.999zm-.748 1.619h.748v6.069h-.748v-6.07zM72.633 19.794c1.959 0 2.825 1.522 2.825 3.177 0 1.654-.866 3.177-2.825 3.177-1.958 0-2.826-1.523-2.826-3.177 0-1.655.867-3.177 2.826-3.177zm0 5.712c1.306 0 2.006-1.13 2.006-2.535 0-1.404-.7-2.534-2.006-2.534-1.306 0-2.006 1.13-2.006 2.534-.001 1.404.7 2.535 2.006 2.535zM77.797 21.364c0-.464 0-.94-.047-1.428h.724v1.082h.024c.248-.547.7-1.225 1.958-1.225 1.497 0 2.066.999 2.066 2.332v3.879h-.749v-3.69c0-1.142-.403-1.88-1.435-1.88-1.366 0-1.793 1.203-1.793 2.214v3.356h-.749v-4.64h.001zM88.97 25.124c.45.227.996.38 1.579.38.713 0 1.34-.392 1.34-1.082 0-1.439-2.908-1.213-2.908-2.975 0-1.202.973-1.654 1.971-1.654.32 0 .962.071 1.496.273l-.071.655c-.392-.178-.926-.285-1.341-.285-.772 0-1.307.237-1.307 1.011 0 1.13 2.98.988 2.98 2.975 0 1.286-1.2 1.726-2.113 1.726-.582 0-1.164-.072-1.698-.285l.072-.739zM99.702 24.577c0 .464 0 .94.048 1.428h-.725v-1.083H99c-.25.547-.7 1.225-1.959 1.225-1.496 0-2.066-1-2.066-2.332v-3.88h.747v3.69c0 1.143.405 1.88 1.437 1.88 1.366 0 1.792-1.201 1.792-2.213v-3.355h.749v4.64zM103.252 18.317h-.748v-.999h.748v.999zm-.748 1.619h.748v6.069h-.748v-6.07zM105.603 25.124c.45.227.997.38 1.579.38.713 0 1.341-.392 1.341-1.082 0-1.439-2.91-1.213-2.91-2.975 0-1.202.974-1.654 1.972-1.654.321 0 .963.071 1.496.273l-.071.655c-.392-.178-.926-.285-1.341-.285-.772 0-1.307.237-1.307 1.011 0 1.13 2.98.988 2.98 2.975 0 1.286-1.199 1.726-2.113 1.726-.582 0-1.164-.072-1.699-.285l.073-.739zM111.147 25.124c.451.227.998.38 1.58.38.712 0 1.34-.392 1.34-1.082 0-1.439-2.909-1.213-2.909-2.975 0-1.202.974-1.654 1.972-1.654.32 0 .962.071 1.495.273l-.07.655c-.393-.178-.926-.285-1.342-.285-.772 0-1.306.237-1.306 1.011 0 1.13 2.98.988 2.98 2.975 0 1.286-1.2 1.726-2.114 1.726-.581 0-1.164-.072-1.698-.285l.072-.739zM121.214 25.814c-.522.214-1.199.333-1.757.333-2.006 0-2.754-1.357-2.754-3.177 0-1.857 1.02-3.177 2.552-3.177 1.71 0 2.41 1.38 2.41 3.01v.381h-4.144c0 1.286.69 2.32 1.995 2.32.546 0 1.342-.226 1.698-.451v.761zm-.367-3.272c0-1.06-.428-2.106-1.543-2.106-1.105 0-1.782 1.106-1.782 2.106h3.325zM6.124 35.04c-.523-.273-1.271-.357-1.853-.357-2.148 0-3.36 1.524-3.36 3.582 0 2.094 1.176 3.581 3.36 3.581.546 0 1.378-.071 1.853-.357l.046.714c-.45.275-1.376.357-1.9.357-2.612 0-4.179-1.724-4.179-4.295 0-2.523 1.615-4.296 4.18-4.296.486 0 1.472.083 1.9.31l-.047.761zM11.264 36.207c1.959 0 2.826 1.522 2.826 3.176 0 1.655-.866 3.177-2.826 3.177-1.958 0-2.826-1.522-2.826-3.177 0-1.654.868-3.176 2.826-3.176zm0 5.712c1.306 0 2.006-1.131 2.006-2.536 0-1.404-.7-2.534-2.006-2.534-1.306 0-2.006 1.131-2.006 2.534 0 1.405.7 2.536 2.006 2.536zM16.428 37.777c0-.464 0-.94-.047-1.429h.724v1.083h.025c.248-.547.7-1.226 1.958-1.226 1.497 0 2.066 1 2.066 2.332v3.882h-.747v-3.69c0-1.142-.404-1.88-1.437-1.88-1.366 0-1.793 1.203-1.793 2.214v3.356h-.749v-4.642zM24.466 36.991h-1.223v-.643h1.223v-.44c0-1.272.047-2.558 1.603-2.558.238 0 .558.036.7.12l-.046.654c-.155-.084-.38-.131-.594-.131-1.02 0-.914 1.106-.914 1.832v.523h1.365v.643h-1.365v5.428h-.748V36.99zM32.896 42.228c-.522.214-1.199.332-1.757.332-2.006 0-2.754-1.356-2.754-3.177 0-1.856 1.02-3.176 2.552-3.176 1.71 0 2.41 1.38 2.41 3.01v.38h-4.144c0 1.287.69 2.322 1.995 2.322.546 0 1.342-.227 1.698-.453v.762zm-.368-3.272c0-1.06-.428-2.107-1.543-2.107-1.105 0-1.782 1.107-1.782 2.107h3.325zM40.495 42.419h-.749v-.965h-.023c-.404.774-1.022 1.106-1.888 1.106-1.662 0-2.493-1.38-2.493-3.177 0-1.844.713-3.176 2.493-3.176 1.187 0 1.78.868 1.888 1.166h.023v-3.879h.749v8.925zm-2.542-.5c1.33 0 1.792-1.43 1.792-2.536s-.463-2.534-1.792-2.534c-1.424 0-1.793 1.357-1.793 2.534 0 1.18.369 2.536 1.793 2.536zM47.285 42.228c-.522.214-1.2.332-1.757.332-2.006 0-2.755-1.356-2.755-3.177 0-1.856 1.022-3.176 2.553-3.176 1.71 0 2.41 1.38 2.41 3.01v.38h-4.144c0 1.287.69 2.322 1.995 2.322.546 0 1.342-.227 1.698-.453v.762zm-.368-3.272c0-1.06-.428-2.107-1.543-2.107-1.105 0-1.78 1.107-1.78 2.107h3.323zM50.088 37.706c0-.667 0-.917-.047-1.357h.747v1.167h.024c.272-.678.784-1.308 1.556-1.308.178 0 .392.035.522.071v.786c-.155-.048-.357-.072-.546-.072-1.187 0-1.508 1.333-1.508 2.428v2.998h-.748v-4.713zM58.445 41.443h-.024c-.332.726-1.175 1.118-1.924 1.118-1.72 0-1.993-1.166-1.993-1.713 0-2.034 2.16-2.129 3.728-2.129h.142v-.309c0-1.036-.369-1.558-1.378-1.558-.629 0-1.223.143-1.78.499v-.726c.463-.226 1.246-.416 1.78-.416 1.496 0 2.125.678 2.125 2.26v2.678c0 .488 0 .856.06 1.273h-.737v-.977h.001zm-.07-2.083h-.215c-1.294 0-2.838.132-2.838 1.465 0 .797.57 1.095 1.259 1.095 1.756 0 1.793-1.535 1.793-2.19v-.37zM61.271 41.788L64.916 36.991 61.414 36.991 61.414 36.348 65.783 36.348 65.783 36.991 62.139 41.775 65.783 41.775 65.783 42.419 61.272 42.419 61.272 41.788zM68.775 34.73h-.749v-.998h.749v.999zm-.748 1.62h.749v6.069h-.749v-6.07zM73.95 36.207c1.96 0 2.826 1.522 2.826 3.176 0 1.655-.867 3.177-2.826 3.177-1.958 0-2.825-1.522-2.825-3.177 0-1.654.867-3.176 2.825-3.176zm0 5.712c1.307 0 2.006-1.131 2.006-2.536 0-1.404-.7-2.534-2.006-2.534-1.305 0-2.006 1.131-2.006 2.534 0 1.405.7 2.536 2.006 2.536zM79.115 37.777c0-.464 0-.94-.047-1.429h.724v1.083h.023c.249-.547.7-1.226 1.958-1.226 1.497 0 2.067 1 2.067 2.332v3.882h-.749v-3.69c0-1.142-.403-1.88-1.436-1.88-1.365 0-1.793 1.203-1.793 2.214v3.356h-.748v-4.642zM90.704 42.228c-.523.214-1.2.332-1.758.332-2.006 0-2.754-1.356-2.754-3.177 0-1.856 1.021-3.176 2.553-3.176 1.71 0 2.41 1.38 2.41 3.01v.38H87.01c0 1.287.69 2.322 1.995 2.322.546 0 1.342-.227 1.699-.453v.762zm-.369-3.272c0-1.06-.428-2.107-1.543-2.107-1.104 0-1.782 1.107-1.782 2.107h3.325zM97.47 41.36c.487.308 1.056.487 1.828.487 1.02 0 1.864-.523 1.864-1.701 0-1.631-3.799-1.833-3.799-4.01 0-1.334 1.164-2.167 2.624-2.167.403 0 1.056.06 1.626.274l-.13.75c-.369-.203-.95-.31-1.508-.31-.854 0-1.792.358-1.792 1.429 0 1.666 3.799 1.677 3.799 4.105 0 1.678-1.436 2.344-2.719 2.344-.807 0-1.437-.166-1.876-.357l.083-.845zM106.577 42.419L105.698 42.419 103.645 36.349 104.464 36.349 106.138 41.598 106.162 41.598 107.919 36.349 108.702 36.349zM111.421 34.73h-.747v-.998h.747v.999zm-.748 1.62h.747v6.069h-.747v-6.07zM113.676 41.788L117.322 36.991 113.819 36.991 113.819 36.348 118.188 36.348 118.188 36.991 114.544 41.775 118.188 41.775 118.188 42.419 113.678 42.419 113.678 41.788zM119.874 41.788L123.519 36.991 120.016 36.991 120.016 36.348 124.385 36.348 124.385 36.991 120.741 41.775 124.385 41.775 124.385 42.419 119.875 42.419 119.875 41.788zM130.69 42.228c-.523.214-1.2.332-1.758.332-2.006 0-2.755-1.356-2.755-3.177 0-1.856 1.022-3.176 2.553-3.176 1.71 0 2.41 1.38 2.41 3.01v.38h-4.144c0 1.287.69 2.322 1.995 2.322.546 0 1.342-.227 1.698-.453v.762zm-.37-3.272c0-1.06-.427-2.107-1.542-2.107-1.105 0-1.78 1.107-1.78 2.107h3.323zM133.492 37.706c0-.667 0-.917-.047-1.357h.747v1.167h.024c.272-.678.784-1.308 1.556-1.308.178 0 .392.035.522.071v.786c-.155-.048-.357-.072-.546-.072-1.187 0-1.508 1.333-1.508 2.428v2.998h-.747v-4.713h-.001zM141.85 41.443h-.025c-.332.726-1.175 1.118-1.924 1.118-1.72 0-1.993-1.166-1.993-1.713 0-2.034 2.16-2.129 3.728-2.129h.142v-.309c0-1.036-.369-1.558-1.378-1.558-.629 0-1.223.143-1.78.499v-.726c.463-.226 1.246-.416 1.78-.416 1.496 0 2.125.678 2.125 2.26v2.678c0 .488 0 .856.06 1.273h-.737v-.977h.001zm-.072-2.083h-.214c-1.294 0-2.838.132-2.838 1.465 0 .797.57 1.095 1.259 1.095 1.756 0 1.793-1.535 1.793-2.19v-.37zM6.124 51.453c-.523-.274-1.271-.358-1.853-.358-2.148 0-3.36 1.524-3.36 3.583 0 2.094 1.176 3.58 3.36 3.58.546 0 1.378-.07 1.853-.357l.046.715c-.45.274-1.376.357-1.9.357-2.612 0-4.179-1.725-4.179-4.295 0-2.523 1.615-4.296 4.18-4.296.486 0 1.472.083 1.9.31l-.047.76zM11.264 52.62c1.959 0 2.826 1.522 2.826 3.176 0 1.654-.866 3.177-2.826 3.177-1.958 0-2.826-1.523-2.826-3.177 0-1.654.868-3.177 2.826-3.177zm0 5.711c1.306 0 2.006-1.13 2.006-2.535 0-1.404-.7-2.534-2.006-2.534-1.306 0-2.006 1.13-2.006 2.534s.7 2.535 2.006 2.535zM16.428 54.19c0-.465 0-.94-.047-1.43h.724v1.084h.025c.248-.547.7-1.226 1.958-1.226 1.497 0 2.066 1 2.066 2.332v3.879h-.747v-3.69c0-1.141-.404-1.88-1.437-1.88-1.366 0-1.793 1.203-1.793 2.213v3.356h-.749V54.19zM24.466 53.404h-1.223v-.643h1.223v-.44c0-1.272.047-2.558 1.603-2.558.238 0 .558.035.7.119l-.046.654c-.155-.084-.38-.13-.594-.13-1.02 0-.914 1.106-.914 1.831v.524h1.365v.643h-1.365v5.426h-.748v-5.426zM32.896 58.64c-.522.215-1.199.333-1.757.333-2.006 0-2.754-1.356-2.754-3.177 0-1.856 1.02-3.177 2.552-3.177 1.71 0 2.41 1.381 2.41 3.01v.381h-4.144c0 1.285.69 2.321 1.995 2.321.546 0 1.342-.225 1.698-.452v.761zm-.368-3.273c0-1.059-.428-2.106-1.543-2.106-1.105 0-1.782 1.106-1.782 2.106h3.325zM40.495 58.831h-.749v-.964h-.023c-.404.773-1.022 1.106-1.888 1.106-1.662 0-2.493-1.38-2.493-3.177 0-1.844.713-3.177 2.493-3.177 1.187 0 1.78.869 1.888 1.167h.023v-3.88h.749v8.925zm-2.542-.5c1.33 0 1.792-1.429 1.792-2.535s-.463-2.534-1.792-2.534c-1.424 0-1.793 1.356-1.793 2.534 0 1.179.369 2.535 1.793 2.535zM47.285 58.64c-.522.215-1.2.333-1.757.333-2.006 0-2.755-1.356-2.755-3.177 0-1.856 1.022-3.177 2.553-3.177 1.71 0 2.41 1.381 2.41 3.01v.381h-4.144c0 1.285.69 2.321 1.995 2.321.546 0 1.342-.225 1.698-.452v.761zm-.368-3.273c0-1.059-.428-2.106-1.543-2.106-1.105 0-1.78 1.106-1.78 2.106h3.323zM50.088 54.118c0-.666 0-.916-.047-1.356h.747v1.167h.024c.272-.678.784-1.309 1.556-1.309.178 0 .392.036.522.072v.786c-.155-.048-.357-.072-.546-.072-1.187 0-1.508 1.333-1.508 2.428v3h-.748v-4.716zM58.445 57.855h-.024c-.332.725-1.175 1.118-1.924 1.118-1.72 0-1.993-1.166-1.993-1.713 0-2.034 2.16-2.13 3.728-2.13h.142v-.31c0-1.034-.369-1.558-1.378-1.558-.629 0-1.223.143-1.78.5v-.726c.463-.227 1.246-.417 1.78-.417 1.496 0 2.125.679 2.125 2.262v2.678c0 .488 0 .856.06 1.272h-.737v-.976h.001zm-.07-2.082h-.215c-1.294 0-2.838.131-2.838 1.464 0 .797.57 1.095 1.259 1.095 1.756 0 1.793-1.535 1.793-2.19v-.37zM61.271 58.201L64.916 53.404 61.414 53.404 61.414 52.761 65.783 52.761 65.783 53.404 62.139 58.187 65.783 58.187 65.783 58.83 61.272 58.83 61.272 58.201zM68.775 51.143h-.749v-.999h.749v1zm-.748 1.619h.749v6.07h-.749v-6.07zM76.313 57.402c0 .465 0 .94.047 1.428h-.725v-1.083h-.023c-.25.547-.7 1.225-1.96 1.225-1.495 0-2.065-1-2.065-2.332v-3.88h.748v3.69c0 1.143.405 1.881 1.437 1.881 1.366 0 1.792-1.202 1.792-2.213v-3.356h.747v4.64h.002zM79.115 54.19c0-.465 0-.94-.047-1.43h.724v1.084h.023c.249-.547.7-1.226 1.958-1.226 1.497 0 2.067 1 2.067 2.332v3.879h-.749v-3.69c0-1.141-.403-1.88-1.436-1.88-1.365 0-1.793 1.203-1.793 2.213v3.356h-.748V54.19zM90.287 57.95c.451.227.997.381 1.58.381.712 0 1.34-.393 1.34-1.083 0-1.44-2.909-1.213-2.909-2.975 0-1.202.974-1.654 1.972-1.654.32 0 .962.072 1.495.274l-.07.654c-.393-.179-.926-.286-1.342-.286-.772 0-1.306.238-1.306 1.011 0 1.131 2.98.988 2.98 2.975 0 1.286-1.2 1.725-2.114 1.725-.581 0-1.164-.072-1.697-.285l.071-.736zM98.395 58.831L97.517 58.831 95.463 52.762 96.283 52.762 97.957 58.011 97.98 58.011 99.738 52.762 100.521 52.762zM103.24 51.143h-.747v-.999h.747v1zm-.748 1.619h.747v6.07h-.747v-6.07zM105.496 58.201L109.141 53.404 105.638 53.404 105.638 52.761 110.008 52.761 110.008 53.404 106.363 58.187 110.008 58.187 110.008 58.83 105.497 58.83 105.497 58.201zM112.25 54.118c0-.666 0-.916-.046-1.356h.749v1.167h.023c.273-.678.784-1.309 1.556-1.309.178 0 .392.036.522.072v.786c-.155-.048-.356-.072-.546-.072-1.187 0-1.508 1.333-1.508 2.428v3h-.748v-4.716h-.001zM120.609 57.855h-.024c-.332.725-1.175 1.118-1.923 1.118-1.722 0-1.994-1.166-1.994-1.713 0-2.034 2.16-2.13 3.728-2.13h.142v-.31c0-1.034-.368-1.558-1.377-1.558-.63 0-1.223.143-1.781.5v-.726c.463-.227 1.246-.417 1.78-.417 1.496 0 2.126.679 2.126 2.262v2.678c0 .488 0 .856.059 1.272h-.736v-.976zm-.07-2.082h-.214c-1.295 0-2.838.131-2.838 1.464 0 .797.57 1.095 1.258 1.095 1.757 0 1.793-1.535 1.793-2.19v-.37z" transform="translate(47.892 2.233)"/>
            </g>
            <path fill="red" d="M34.515 3.156S28.235.4 17.722.4h-.003C7.205.4.924 3.156.924 3.156S.362 15.36 2.745 22.26c4.21 12.134 14.972 15.542 14.972 15.542h.007s10.759-3.408 14.97-15.542c2.384-6.901 1.82-19.105 1.82-19.105z"/>
            <path fill="#FFF" d="M28.88 13.677L28.88 20.401 21.053 20.401 21.053 28.246 14.343 28.246 14.343 20.401 6.516 20.401 6.516 13.677 14.343 13.677 14.343 5.834 21.051 5.834 21.053 13.677z"/>
        </g>
        <path fill="#1D1D1B" d="M146.92 85.311v1.722h1.376v.64h-1.376v3.918c0 .549.2.998.808.998.284 0 .473-.059.688-.142l.047.616c-.178.072-.548.167-.914.167-1.273 0-1.372-.838-1.378-1.883v-3.673h-1.187v-.641h1.186v-1.46l.75-.262zm9.566 1.581c1.96 0 2.826 1.517 2.826 3.17 0 1.648-.867 3.167-2.826 3.167-1.956 0-2.825-1.519-2.825-3.166 0-1.654.869-3.17 2.825-3.17zM50.402 84.66c.404 0 1.056.059 1.627.271l-.131.75c-.368-.202-.95-.31-1.508-.31-.855 0-1.791.357-1.791 1.424 0 1.663 3.795 1.674 3.795 4.096 0 1.674-1.433 2.338-2.717 2.338-.805 0-1.435-.165-1.875-.357l.084-.842c.487.31 1.056.488 1.825.488 1.022 0 1.866-.524 1.866-1.697 0-1.627-3.8-1.83-3.8-4.001 0-1.33 1.165-2.16 2.625-2.16zm44.726 2.232c1.959 0 2.825 1.517 2.825 3.17 0 1.648-.866 3.167-2.825 3.167s-2.825-1.519-2.825-3.166c0-1.654.866-3.17 2.825-3.17zm-7.288-2.234c.487 0 1.471.084 1.9.31l-.047.76c-.522-.273-1.27-.357-1.853-.357-2.148 0-3.358 1.521-3.358 3.575 0 2.087 1.173 3.572 3.358 3.572.546 0 1.379-.072 1.853-.359l.047.716c-.451.27-1.377.354-1.9.354-2.611 0-4.177-1.72-4.177-4.283 0-2.519 1.613-4.288 4.177-4.288zm53.013 2.232c1.496 0 2.123.677 2.123 2.257v2.67c0 .487 0 .853.061 1.272h-.735v-.975h-.025c-.332.723-1.176 1.115-1.923 1.115-1.722 0-1.995-1.162-1.995-1.71 0-2.03 2.162-2.124 3.728-2.124h.143v-.309c0-1.034-.368-1.553-1.377-1.553-.63 0-1.223.14-1.783.497v-.724c.465-.226 1.248-.416 1.783-.416zm-65.18.002c.32 0 .961.07 1.496.271l-.072.655c-.39-.181-.926-.287-1.34-.287-.773 0-1.307.24-1.307 1.009 0 1.128 2.978.988 2.978 2.97 0 1.281-1.198 1.719-2.112 1.719-.58 0-1.162-.07-1.697-.284l.072-.736c.452.226.998.381 1.578.381.713 0 1.342-.395 1.342-1.08 0-1.438-2.908-1.212-2.908-2.97 0-1.199.972-1.648 1.97-1.648zm-5.544 0c.32 0 .961.07 1.496.271l-.072.655c-.39-.181-.925-.287-1.34-.287-.772 0-1.307.24-1.307 1.009 0 1.128 2.981.988 2.981 2.97 0 1.281-1.2 1.719-2.114 1.719-.58 0-1.163-.07-1.697-.284l.072-.736c.451.226.997.381 1.577.381.713 0 1.343-.395 1.343-1.08 0-1.438-2.909-1.212-2.909-2.97 0-1.199.973-1.648 1.97-1.648zm54.225-2.708v8.905h-.75v-.964h-.022c-.404.774-1.022 1.104-1.889 1.104-1.66 0-2.49-1.374-2.49-3.166 0-1.844.71-3.17 2.49-3.17 1.19 0 1.78.864 1.89 1.16h.022v-3.869h.749zm-9.557 2.707c1.71 0 2.41 1.379 2.41 3.004v.379h-4.144c0 1.284.691 2.317 1.995 2.317.546 0 1.343-.228 1.697-.453v.76c-.521.212-1.198.33-1.755.33-2.007 0-2.756-1.352-2.756-3.169 0-1.85 1.023-3.168 2.553-3.168zm14.387 0c1.71 0 2.41 1.379 2.41 3.004v.379h-4.143c0 1.284.69 2.317 1.994 2.317.546 0 1.343-.228 1.697-.453v.76c-.52.212-1.198.33-1.758.33-2.003 0-2.753-1.352-2.753-3.169 0-1.85 1.023-3.168 2.553-3.168zm22.127.142v6.055h-.747v-6.055h.747zm-85.515 0v6.055h-.747v-6.055h.747zm98.512-.14c1.496 0 2.065.997 2.065 2.323v3.87h-.747v-3.678c0-1.14-.402-1.877-1.435-1.877-1.366 0-1.794 1.2-1.794 2.209v3.347h-.747v-4.629c0-.462 0-.936-.048-1.424h.725v1.079h.022c.25-.548.702-1.22 1.959-1.22zm-61.358 0c1.496 0 2.065.997 2.065 2.323v3.87h-.747v-3.678c0-1.14-.402-1.877-1.436-1.877-1.365 0-1.794 1.2-1.794 2.209v3.347h-.747v-4.629c0-.462 0-.936-.047-1.424h.724v1.079h.023c.25-.548.702-1.22 1.959-1.22zm33.274-.001c.178 0 .39.036.523.07v.785c-.155-.05-.358-.072-.546-.072-1.187 0-1.51 1.329-1.51 2.421v2.99h-.746v-4.7c0-.664 0-.912-.048-1.354h.747v1.162h.023c.275-.675.785-1.302 1.557-1.302zm-26.293-2.847c.237 0 .56.034.7.115l-.046.655c-.156-.084-.381-.131-.596-.131-1.02 0-.914 1.103-.914 1.825v.524h1.366v.64h-1.366v5.412h-.747v-5.411h-1.223v-.641h1.223v-.438c0-1.273.048-2.55 1.603-2.55zm-55.077 2.987l1.59 5.24h.023l1.686-5.24h.9l1.605 5.24h.025l1.672-5.24h.747l-1.993 6.054h-.902l-1.65-5.233h-.023l-1.651 5.233h-.903l-1.945-6.054h.819zm87.376 3.004h-.215c-1.293 0-2.836.133-2.836 1.46 0 .797.57 1.092 1.259 1.092 1.693 0 1.787-1.424 1.791-2.111v-.441zm-47.102-2.503c-1.306 0-2.006 1.129-2.006 2.53 0 1.397.7 2.525 2.006 2.525 1.307 0 2.006-1.128 2.006-2.525 0-1.401-.7-2.53-2.006-2.53zm26.685 0c-1.424 0-1.794 1.352-1.794 2.53 0 1.171.37 2.525 1.794 2.525 1.33 0 1.792-1.424 1.792-2.525 0-1.106-.463-2.53-1.792-2.53zm34.673 0c-1.306 0-2.006 1.129-2.006 2.53 0 1.397.7 2.525 2.006 2.525 1.307 0 2.007-1.128 2.007-2.525 0-1.401-.7-2.53-2.007-2.53zm-27.255-.001c-1.104 0-1.78 1.103-1.78 2.1h3.324c0-1.055-.427-2.1-1.544-2.1zm-14.387 0c-1.104 0-1.78 1.103-1.78 2.1h3.323c0-1.055-.426-2.1-1.543-2.1zm-49.048-3.11v.998h-.747v-.998h.747zm85.515 0v.998h-.747v-.998h.747zM198.338 169.144c1.875 0 2.565 1.496 2.565 3.182 0 1.674-.69 3.218-2.6 3.218-.678 0-1.238-.167-1.793-.842h-.025v3.193h-1.59v-8.611h1.518v.869h.025c.356-.598.96-1.009 1.9-1.009zm33.492-.002c1.864 0 2.636.772 2.636 2.577v.783c0 .618.011 1.083.025 1.535.011.462.034.889.07 1.365h-1.401c-.06-.32-.06-.725-.07-.916h-.025c-.368.679-1.162 1.06-1.889 1.06-1.079 0-2.137-.654-2.137-1.82 0-.913.44-1.45 1.047-1.745.605-.296 1.388-.357 2.051-.357h.88c0-.986-.437-1.318-1.376-1.318-.677 0-1.354.264-1.889.666l-.047-1.367c.616-.285 1.448-.463 2.125-.463zm-96.079 0c1.864 0 2.636.772 2.636 2.577v.783c0 .618.011 1.083.025 1.535.011.462.036.889.07 1.365h-1.4c-.06-.32-.06-.725-.072-.916h-.024c-.368.679-1.163 1.06-1.887 1.06-1.08 0-2.137-.654-2.137-1.82 0-.913.438-1.45 1.045-1.745.605-.296 1.388-.357 2.051-.357h.88c0-.986-.438-1.318-1.376-1.318-.677 0-1.354.264-1.89.666l-.047-1.367c.616-.285 1.45-.463 2.126-.463zm-21.059 0c1.864 0 2.636.772 2.636 2.577v.783c0 .618.011 1.083.025 1.535.011.462.034.889.07 1.365h-1.401c-.06-.32-.06-.725-.07-.916h-.025c-.368.679-1.162 1.06-1.889 1.06-1.079 0-2.137-.654-2.137-1.82 0-.913.44-1.45 1.045-1.745.607-.296 1.39-.357 2.053-.357h.88c0-.986-.437-1.318-1.376-1.318-.677 0-1.354.264-1.889.666l-.05-1.367c.619-.285 1.451-.463 2.128-.463zm64.994 0c1.864 0 2.636.772 2.636 2.577v.783c0 .618.01 1.083.024 1.535.012.462.037.889.07 1.365h-1.399c-.06-.32-.06-.725-.072-.916h-.025c-.368.679-1.162 1.06-1.889 1.06-1.078 0-2.134-.654-2.134-1.82 0-.913.437-1.45 1.042-1.745.607-.296 1.39-.357 2.054-.357h.88c0-.986-.438-1.318-1.377-1.318-.677 0-1.354.264-1.888.666l-.048-1.367c.616-.285 1.449-.463 2.126-.463zm-14.155 0c1.864 0 2.636.772 2.636 2.577v.783c0 .618.011 1.083.025 1.535.011.462.036.889.07 1.365h-1.402c-.058-.32-.058-.725-.07-.916h-.024c-.368.679-1.163 1.06-1.89 1.06-1.078 0-2.136-.654-2.136-1.82 0-.913.44-1.45 1.047-1.745.605-.296 1.388-.357 2.051-.357h.88c0-.986-.438-1.318-1.376-1.318-.677 0-1.354.264-1.89.666l-.046-1.367c.616-.285 1.448-.463 2.125-.463zm-14.154 0c1.864 0 2.636.772 2.636 2.577v.783c0 .618.01 1.083.024 1.535.012.462.034.889.07 1.365h-1.401c-.059-.32-.059-.725-.07-.916h-.025c-.368.679-1.162 1.06-1.889 1.06-1.078 0-2.137-.654-2.137-1.82 0-.913.44-1.45 1.047-1.745.605-.296 1.388-.357 2.052-.357h.88c0-.986-.438-1.318-1.377-1.318-.677 0-1.354.264-1.888.666l-.048-1.367c.616-.285 1.449-.463 2.126-.463zm-52.391-2.648v8.907h-1.542v-.688h-.027c-.474.591-1.126.83-1.875.83-1.875 0-2.563-1.543-2.563-3.217 0-1.686.688-3.185 2.563-3.185.797 0 1.354.276 1.828.858h.025v-3.505h1.59zm158.22.477c.714 0 1.38.095 1.985.296l-.154 1.365c-.521-.228-1.106-.356-1.686-.356-.57 0-1.306.25-1.306 1.153 0 1.435 3.633.83 3.633 3.61 0 1.817-1.438 2.505-3.112 2.505-.903 0-1.307-.117-2.126-.32l.154-1.496c.57.309 1.225.507 1.877.507.63 0 1.474-.318 1.474-1.065 0-1.58-3.633-.927-3.633-3.671 0-1.853 1.435-2.528 2.895-2.528zm-168.142 2.17c2.27 0 2.911 1.556 2.911 3.693h-4.229c.072.988.76 1.546 1.747 1.546.772 0 1.435-.285 2.03-.617v1.294c-.581.318-1.247.487-2.102.487-2.018 0-3.196-1.164-3.196-3.17 0-1.77.941-3.232 2.839-3.232zm42.5-2.647v8.907h-1.54v-.688h-.026c-.474.591-1.128.83-1.877.83-1.875 0-2.564-1.543-2.564-3.217 0-1.686.689-3.185 2.564-3.185.796 0 1.354.276 1.828.858h.025v-3.505h1.59zm43.935 0v8.907h-1.541v-.688h-.025c-.474.591-1.128.83-1.877.83-1.876 0-2.564-1.543-2.564-3.217 0-1.686.688-3.185 2.564-3.185.796 0 1.354.276 1.827.858h.025v-3.505h1.591zm35.794 0v3.575h.023c.44-.58.997-.928 1.83-.928 1.875 0 2.563 1.499 2.563 3.185 0 1.674-.688 3.218-2.563 3.218-.68 0-1.415-.24-1.878-.89h-.022v.747h-1.544v-8.907h1.591zm-108.072 2.648c2.268 0 2.909 1.555 2.909 3.692h-4.23c.073.988.761 1.546 1.747 1.546.772 0 1.438-.285 2.031-.617v1.294c-.582.318-1.248.487-2.103.487-2.017 0-3.193-1.164-3.193-3.17 0-1.77.939-3.232 2.839-3.232zm86.431-2.648v8.907h-1.54v-.688h-.026c-.474.591-1.128.83-1.877.83-1.875 0-2.564-1.543-2.564-3.217 0-1.686.689-3.185 2.564-3.185.796 0 1.356.276 1.83.858h.023v-3.505h1.59zm51.728.618v4.786c0 1.413.451 2.34 1.722 2.34 1.27 0 1.724-.927 1.724-2.34v-4.786h1.66v5.296c0 2.22-1.259 3.134-3.384 3.134-2.126 0-3.385-.914-3.385-3.134v-5.296h1.663zm-95.817 2.031c.747 0 1.234.117 1.733.223l-.106 1.201c-.487-.167-.844-.262-1.424-.262-.43 0-.939.156-.939.68 0 .972 2.767.356 2.767 2.563 0 1.426-1.27 1.995-2.566 1.995-.607 0-1.223-.106-1.805-.262l.095-1.307c.499.251 1.022.404 1.568.404.404 0 1.045-.153 1.045-.747 0-1.2-2.767-.379-2.767-2.59 0-1.316 1.151-1.898 2.4-1.898zm-96.46-2.031v4.786c0 1.413.453 2.34 1.722 2.34 1.272 0 1.724-.927 1.724-2.34v-4.786h1.66v5.296c0 2.22-1.256 3.134-3.384 3.134-2.126 0-3.383-.914-3.383-3.134v-5.296h1.66zm154.785 2.172v3.266c0 .747.011 1.758 1.034 1.758 1.15 0 1.401-1.246 1.401-2.03v-2.994h1.59v6.118h-1.507v-.833h-.022c-.49.594-1.178.973-2.008.973-1.45 0-2.079-1.022-2.079-2.397v-3.86h1.591zm22.686-.142c.64 0 1.104.075 1.546.201l-.145 1.261c-.286-.133-.593-.227-1.08-.227-.987 0-1.616.785-1.616 1.938 0 1.128.535 1.995 1.65 1.995.453 0 .952-.17 1.225-.285l.072 1.318c-.465.143-.939.199-1.593.199-2.006 0-3.017-1.363-3.017-3.227 0-1.771 1.047-3.173 2.958-3.173zm36.72-2.03c1.803 0 3.455.521 3.455 2.507 0 1.934-1.413 2.636-3.196 2.636h-.7v3.148h-1.662v-8.29h2.103zm-104.024 2.03c1.447 0 2.076 1.025 2.076 2.4v3.86h-1.59v-3.265c0-.747-.012-1.76-1.034-1.76-1.151 0-1.401 1.245-1.401 2.033v2.992h-1.591v-6.117h1.507v.83h.023c.5-.697 1.178-.973 2.01-.973zm-100.663-2.787c.404 0 .856.056 1.165.126l-.131 1.318c-.142-.084-.345-.215-.688-.215-.535 0-.702.468-.702.94v.76h1.39v1.164h-1.39v4.953H56.66v-4.953h-1.176v-1.164h1.176v-.856c0-1.223.688-2.073 1.947-2.073zm25.772 0c.404 0 .855.056 1.164.126l-.13 1.318c-.143-.084-.346-.215-.689-.215-.535 0-.702.468-.702.94v.76h1.39v1.164h-1.39v4.953h-1.59v-4.953h-1.176v-1.164h1.175v-.856c0-1.223.689-2.073 1.948-2.073zm26.78 2.835v1.602c-.142-.084-.429-.13-.713-.13-1.296 0-1.296 1.615-1.296 2.493v2.247h-1.59v-6.117h1.412v1.387h.023c.072-.568.726-1.53 1.676-1.53.154 0 .32 0 .488.048zm111.022.094v6.118h-1.59v-6.118h1.59zm-159.016-2.93c.406 0 .855.057 1.164.127l-.13 1.318c-.143-.084-.346-.215-.689-.215-.532 0-.7.468-.7.94v.76h1.388v1.164h-1.387v4.953h-1.594v-4.953h-1.175v-1.164h1.175v-.856c0-1.223.689-2.073 1.948-2.073zm10.278 2.93v1.307l-3.04 3.575h3.146v1.236h-5.082v-1.295l3.1-3.588h-2.97v-1.234h4.846zm-6.411 0v6.118h-1.59v-6.118h1.59zm9.539 0v6.118H74.98v-6.118h1.59zm142.157-2.79v8.906h-1.59v-8.905h1.59zm34.377.618v1.306h-2.945v2.042h2.802v1.307h-2.802v3.633h-1.663v-8.288h4.608zm-132.433-.617v8.905h-1.591v-8.905h1.59zm60.2 6.08h-.687c-.711 0-1.77.119-1.77 1.058 0 .52.44.747 1.01.747.487 0 .866-.215 1.116-.547.26-.345.332-.783.332-1.259zm-43.934 0h-.688c-.711 0-1.77.119-1.77 1.058 0 .52.44.747 1.01.747.487 0 .868-.215 1.116-.547.26-.345.332-.783.332-1.259zm29.78 0h-.688c-.713 0-1.771.119-1.771 1.058 0 .52.442.747 1.01.747.488 0 .867-.215 1.118-.547.259-.345.331-.783.331-1.259zm-50.839 0h-.688c-.713 0-1.77.119-1.77 1.058 0 .52.441.747 1.01.747.487 0 .866-.215 1.117-.547.26-.345.331-.783.331-1.259zm36.685 0h-.688c-.714 0-1.772.119-1.772 1.058 0 .52.442.747 1.011.747.488 0 .867-.215 1.117-.547.26-.345.332-.783.332-1.259zm80.453 0h-.688c-.713 0-1.771.119-1.771 1.058 0 .52.442.747 1.01.747.488 0 .867-.215 1.118-.547.26-.345.331-.783.331-1.259zm-35.095-2.197c-1.022 0-1.426 1.093-1.426 1.948 0 .866.346 1.983 1.402 1.983 1.047 0 1.342-1.141 1.342-1.983 0-.82-.286-1.948-1.318-1.948zm-25.449 0c-1.033 0-1.32 1.128-1.32 1.948 0 .844.296 1.983 1.343 1.983 1.058 0 1.401-1.117 1.401-1.983 0-.856-.404-1.948-1.424-1.948zm14.153 0c-1.033 0-1.32 1.128-1.32 1.948 0 .844.296 1.983 1.343 1.983 1.058 0 1.401-1.117 1.401-1.983 0-.856-.401-1.948-1.424-1.948zm-90.666 0c-1.034 0-1.32 1.128-1.32 1.948 0 .844.295 1.983 1.342 1.983 1.058 0 1.401-1.117 1.401-1.983 0-.856-.403-1.948-1.423-1.948zm116.768 0c-1.022 0-1.424 1.092-1.424 1.948 0 .866.343 1.983 1.402 1.983 1.045 0 1.342-1.14 1.342-1.983 0-.82-.286-1.948-1.32-1.948zm-84.19 0c-1.033 0-1.32 1.128-1.32 1.948 0 .844.296 1.983 1.343 1.983 1.058 0 1.401-1.117 1.401-1.983 0-.856-.404-1.948-1.424-1.948zm-25.225-.072c-.889 0-1.34.619-1.412 1.438h2.708c-.048-.772-.404-1.438-1.296-1.438zm-14.154 0c-.89 0-1.34.619-1.413 1.438h2.708c-.047-.772-.404-1.438-1.295-1.438zm174.277-1.887h-.582v2.53h.582c.83 0 1.58-.274 1.58-1.235 0-.964-.727-1.295-1.58-1.295zm-196.404-1.77v1.523h-1.59v-1.524h1.59zm9.539 0v1.523H74.98v-1.524h1.59zm145.61 0v1.523h-1.59v-1.524h1.59zm-9.312-13.892c1.875 0 2.566 1.498 2.566 3.184 0 1.674-.69 3.218-2.602 3.218-.677 0-1.237-.165-1.794-.844h-.023v3.195h-1.593v-8.609h1.519v.867h.025c.359-.596.963-1.011 1.902-1.011zm41.109.002c1.864 0 2.636.772 2.636 2.575v.785c0 .617.013 1.08.025 1.533.01.465.036.889.072 1.365h-1.402c-.06-.32-.06-.722-.072-.912h-.025c-.368.675-1.164 1.056-1.886 1.056-1.083 0-2.14-.654-2.14-1.818 0-.914.44-1.451 1.048-1.745.604-.298 1.387-.359 2.05-.359h.883c0-.984-.44-1.32-1.379-1.32-.677 0-1.354.264-1.888.666l-.048-1.363c.616-.284 1.449-.463 2.126-.463zm-132.334 0c1.864 0 2.636.772 2.636 2.575v.785c0 .617.011 1.08.025 1.533.011.465.034.889.07 1.365h-1.402c-.058-.32-.058-.722-.07-.912h-.025c-.367.675-1.164 1.056-1.888 1.056-1.081 0-2.14-.654-2.14-1.818 0-.914.443-1.451 1.048-1.745.604-.298 1.39-.359 2.053-.359h.88c0-.984-.438-1.32-1.379-1.32-.674 0-1.351.264-1.888.666l-.048-1.363c.618-.284 1.451-.463 2.128-.463zm79.917 0c1.864 0 2.636.772 2.636 2.575v.785c0 .617.011 1.08.025 1.533.01.465.033.889.07 1.365h-1.402c-.058-.32-.058-.722-.07-.912h-.025c-.367.675-1.162 1.056-1.888 1.056-1.079 0-2.14-.654-2.14-1.818 0-.914.443-1.451 1.047-1.745.605-.298 1.39-.359 2.054-.359h.88c0-.984-.438-1.32-1.377-1.32-.676 0-1.353.264-1.89.666l-.048-1.363c.618-.284 1.451-.463 2.128-.463zm-22.497 0c1.864 0 2.636.772 2.636 2.575v.785c0 .617.011 1.08.025 1.533.011.465.034.889.07 1.365h-1.401c-.061-.32-.061-.722-.07-.912h-.025c-.368.675-1.165 1.056-1.889 1.056-1.08 0-2.14-.654-2.14-1.818 0-.914.443-1.451 1.048-1.745.605-.298 1.39-.359 2.053-.359h.88c0-.984-.437-1.32-1.378-1.32-.675 0-1.354.264-1.89.666l-.047-1.363c.619-.284 1.451-.463 2.128-.463zm-15.714 0c1.864 0 2.635.772 2.635 2.575v.785c0 .617.012 1.08.025 1.533.011.465.034.889.07 1.365h-1.401c-.059-.32-.059-.722-.07-.912h-.025c-.368.675-1.164 1.056-1.889 1.056-1.08 0-2.14-.654-2.14-1.818 0-.914.443-1.451 1.048-1.745.605-.298 1.39-.359 2.053-.359h.88c0-.984-.437-1.32-1.378-1.32-.675 0-1.352.264-1.89.666l-.046-1.363c.618-.284 1.45-.463 2.128-.463zm9.869 0c.75 0 1.234.117 1.735.223l-.108 1.2c-.488-.167-.842-.261-1.424-.261-.429 0-.939.155-.939.679 0 .972 2.767.356 2.767 2.566 0 1.424-1.27 1.994-2.566 1.994-.607 0-1.223-.106-1.805-.261l.095-1.307c.498.248 1.022.404 1.568.404.404 0 1.045-.156 1.045-.75 0-1.197-2.767-.378-2.767-2.587 0-1.318 1.15-1.9 2.399-1.9zm23.257-1.593v1.733h1.413v1.166h-1.413v2.85c0 .524.143 1.01.747 1.01.287 0 .56-.06.727-.165l.047 1.256c-.331.095-.701.145-1.175.145-1.248 0-1.936-.772-1.936-1.984v-3.112h-1.176V152.9h1.176v-1.223l1.59-.51zm-100.585 1.591c2.268 0 2.911 1.555 2.911 3.697h-4.229c.073.984.76 1.543 1.747 1.543.772 0 1.437-.284 2.03-.618v1.295c-.581.32-1.247.485-2.102.485-2.018 0-3.196-1.162-3.196-3.17 0-1.77.94-3.232 2.84-3.232zm-24.527.003c.64 0 1.103.072 1.545.198l-.144 1.26c-.287-.131-.594-.226-1.081-.226-.986 0-1.616.785-1.616 1.938 0 1.129.535 1.995 1.65 1.995.453 0 .952-.167 1.225-.284l.072 1.318c-.464.142-.938.2-1.593.2-2.008 0-3.017-1.365-3.017-3.229 0-1.769 1.045-3.17 2.959-3.17zm60.59-.003c2.268 0 2.909 1.555 2.909 3.697h-4.227c.07.984.76 1.543 1.745 1.543.771 0 1.437-.284 2.033-.618v1.295c-.582.32-1.248.485-2.103.485-2.018 0-3.196-1.162-3.196-3.17 0-1.77.94-3.232 2.84-3.232zm116.739.003c.643 0 1.106.072 1.546.198l-.142 1.26c-.287-.131-.596-.226-1.081-.226-.986 0-1.616.785-1.616 1.938 0 1.129.535 1.995 1.65 1.995.45 0 .95-.167 1.225-.284l.07 1.318c-.463.142-.939.2-1.593.2-2.007 0-3.015-1.365-3.015-3.229 0-1.769 1.045-3.17 2.956-3.17zm-138.583-.003c2.268 0 2.91 1.555 2.91 3.697h-4.228c.07.984.76 1.543 1.744 1.543.774 0 1.438-.284 2.033-.618v1.295c-.582.32-1.248.485-2.103.485-2.017 0-3.195-1.162-3.195-3.17 0-1.77.939-3.232 2.839-3.232zm153.48-2.03v4.786c0 1.413.45 2.34 1.72 2.34s1.724-.927 1.724-2.34v-4.786h1.663v5.299c0 2.22-1.261 3.134-3.387 3.134-2.126 0-3.385-.914-3.385-3.134v-5.299h1.665zm-214.485 0v4.786c0 1.413.451 2.34 1.722 2.34 1.27 0 1.724-.927 1.724-2.34v-4.786h1.66v5.299c0 2.22-1.258 3.134-3.384 3.134s-3.385-.914-3.385-3.134v-5.299h1.663zm169.347 2.173v3.267c0 .747.012 1.756 1.034 1.756 1.15 0 1.401-1.246 1.401-2.029V152.9h1.591v6.117h-1.507v-.832h-.025c-.487.595-1.176.975-2.008.975-1.45 0-2.079-1.02-2.079-2.4v-3.86h1.593zm61.031-2.316c.711 0 1.377.095 1.982.298l-.154 1.366c-.521-.228-1.106-.357-1.688-.357-.568 0-1.306.248-1.306 1.153 0 1.435 3.635.83 3.635 3.61 0 1.817-1.437 2.506-3.112 2.506-.905 0-1.309-.118-2.126-.32l.154-1.497c.57.31 1.223.51 1.875.51.63 0 1.474-.32 1.474-1.067 0-1.58-3.633-.928-3.633-3.672 0-1.853 1.435-2.53 2.9-2.53zm-129.83 2.173c2.267 0 2.91 1.555 2.91 3.697h-4.229c.07.984.76 1.543 1.747 1.543.772 0 1.437-.284 2.03-.618v1.295c-.581.32-1.247.485-2.102.485-2.018 0-3.196-1.162-3.196-3.17 0-1.77.939-3.232 2.84-3.232zm-43.807-2.647v8.909h-1.544v-.69h-.024c-.474.593-1.129.83-1.878.83-1.875 0-2.563-1.544-2.563-3.218 0-1.686.688-3.184 2.563-3.184.797 0 1.356.275 1.83.855h.023v-3.502h1.593zm39.54 0v8.909h-1.543v-.69h-.023c-.476.593-1.128.83-1.877.83-1.876 0-2.566-1.544-2.566-3.218 0-1.686.69-3.184 2.566-3.184.796 0 1.356.275 1.827.855h.025v-3.502h1.591zm-64.852 2.647c1.819 0 3.207 1.223 3.207 3.242 0 1.758-1.176 3.16-3.207 3.16-2.02 0-3.195-1.402-3.195-3.16 0-2.02 1.39-3.242 3.195-3.242zm152.79-2.647v3.574h.022c.438-.582 1-.927 1.83-.927 1.878 0 2.566 1.498 2.566 3.184 0 1.674-.688 3.218-2.565 3.218-.677 0-1.415-.237-1.878-.89h-.023v.75h-1.543v-8.91h1.59zm-7.437 0v3.574h.023c.44-.582.997-.927 1.83-.927 1.878 0 2.564 1.498 2.564 3.184 0 1.674-.686 3.218-2.564 3.218-.68 0-1.415-.237-1.875-.89h-.025v.75h-1.544v-8.91h1.591zm59.713.617c1.803 0 3.455.524 3.455 2.507 0 1.934-1.413 2.636-3.196 2.636h-.7v3.148h-1.662v-8.29h2.103zm-98.614 2.03c1.45 0 2.079 1.023 2.079 2.4v3.86h-1.591v-3.265c0-.747-.014-1.76-1.036-1.76-1.15 0-1.399 1.248-1.399 2.033v2.992h-1.593V152.9h1.51v.83h.022c.499-.697 1.176-.972 2.008-.972zm88.363-2.03v1.307h-2.947v2.04h2.803v1.308h-2.803v3.636h-1.663v-8.291h4.61zm-157.268 2.078v1.602c-.142-.081-.427-.13-.713-.13-1.19 0-1.285 1.367-1.293 2.273v2.467h-1.594V152.9h1.413v1.39h.025c.072-.571.724-1.532 1.674-1.532.156 0 .323 0 .488.047zm-54.854-2.838c.404 0 .856.061 1.165.13l-.131 1.317c-.142-.084-.345-.212-.69-.212-.533 0-.7.465-.7.939v.758h1.39v1.166h-1.39v4.951h-1.593v-4.95h-1.174v-1.167h1.174v-.853c0-1.223.69-2.079 1.95-2.079zm27.948 0c.406 0 .856.06 1.165.131l-.129 1.318c-.144-.083-.345-.216-.69-.216-.533 0-.7.464-.7.938v.76h1.39v1.167h-1.39v4.951h-1.593v-4.95h-1.176v-1.167h1.176v-.855c0-1.224.69-2.077 1.947-2.077zm153.1 2.932v6.117h-1.593V152.9h1.594zm-3.481-2.792v8.91h-1.591v-8.91h1.59zm-81.699 0v8.91h-1.593v-8.91h1.593zm33.414 2.792v6.117h-1.591V152.9h1.59zm-125.565 0v6.117h-1.59V152.9h1.59zm60.712-2.792v8.91h-1.593v-8.91h1.593zm-69.014-.14c.404 0 .855.06 1.164.131l-.129 1.318c-.144-.083-.345-.216-.69-.216-.533 0-.7.464-.7.938v.76h1.39v1.167h-1.39v4.951h-1.593v-4.95H55.52v-1.167h1.175v-.855c0-1.224.688-2.077 1.948-2.077zm17.234 2.932v6.117h-1.591V152.9h1.59zm79.742-2.792v8.91h-1.593v-8.91h1.593zm-32.787 6.08h-.69c-.711 0-1.77.122-1.77 1.063 0 .519.443.747 1.011.747.488 0 .867-.217 1.117-.546.26-.348.332-.785.332-1.264zm41.706 0h-.691c-.71 0-1.77.122-1.77 1.063 0 .519.443.747 1.012.747.487 0 .866-.217 1.117-.546.26-.348.332-.785.332-1.264zm15.714 0h-.69c-.711 0-1.77.122-1.77 1.063 0 .519.443.747 1.012.747.487 0 .866-.217 1.117-.546.26-.348.331-.785.331-1.264zm74.916 0h-.69c-.713 0-1.772.122-1.772 1.063 0 .519.443.747 1.011.747.488 0 .867-.217 1.117-.546.262-.348.334-.785.334-1.264zm-52.419 0h-.688c-.713 0-1.772.122-1.772 1.063 0 .519.443.747 1.011.747.488 0 .867-.217 1.117-.546.26-.348.332-.785.332-1.264zm9.704-2.194c-1.02 0-1.424 1.093-1.424 1.948 0 .866.345 1.984 1.401 1.984 1.047 0 1.343-1.14 1.343-1.984 0-.82-.287-1.948-1.32-1.948zm-70.094 0c-1.034 0-1.318 1.129-1.318 1.948 0 .844.296 1.983 1.343 1.983 1.058 0 1.401-1.117 1.401-1.983 0-.856-.404-1.948-1.426-1.948zm-39.543 0c-1.03 0-1.317 1.129-1.317 1.948 0 .844.297 1.983 1.342 1.983 1.059 0 1.404-1.117 1.404-1.983 0-.856-.404-1.948-1.429-1.948zm124.51 0c-1.022 0-1.426 1.092-1.426 1.948 0 .866.345 1.983 1.401 1.983 1.047 0 1.343-1.14 1.343-1.983 0-.82-.285-1.948-1.318-1.948zm7.436 0c-1.022 0-1.426 1.092-1.426 1.948 0 .866.343 1.983 1.401 1.983 1.048 0 1.343-1.14 1.343-1.983 0-.82-.284-1.948-1.318-1.948zm-154.227 0c-1.034 0-1.53.903-1.53 1.817 0 1.009.318 2.114 1.53 2.114 1.223 0 1.544-1.092 1.544-2.114 0-.937-.497-1.817-1.544-1.817zm51.515-.071c-.89 0-1.343.618-1.413 1.437h2.708c-.047-.772-.404-1.437-1.295-1.437zm17.698 0c-.89 0-1.343.618-1.413 1.437h2.708c-.047-.772-.404-1.437-1.295-1.437zm-39.543 0c-.889 0-1.342.618-1.412 1.437h2.708c-.048-.772-.404-1.437-1.296-1.437zm-14.218 0c-.89 0-1.34.618-1.413 1.437h2.708c-.047-.772-.404-1.437-1.295-1.437zm189.756-1.888h-.582v2.53h.582c.83 0 1.58-.274 1.58-1.235 0-.963-.725-1.295-1.58-1.295zm-84.312-1.7l.986 1.735h-.986l-1.627-1.736h1.627zm-134.486-.073v1.52h-1.59v-1.52h1.59zm8.932 0v1.52h-1.591v-1.52h1.59zm116.633 0v1.52h-1.591v-1.52h1.59zm51.767 0v1.52h-1.594v-1.52h1.594zm-15.256-13.938c.91 0 1.496.384 1.88 1.018h.023v-.871h1.534v8.683h-1.604v-3.222h-.025c-.564.684-1.126.85-1.808.85-1.931 0-2.624-1.557-2.624-3.247 0-1.701.693-3.21 2.624-3.21zm-28.277 0c1.894 0 2.589 1.51 2.589 3.211 0 1.69-.695 3.247-2.622 3.247-.686 0-1.248-.166-1.812-.85h-.023v3.222h-1.607v-8.683h1.533v.87h.024c.361-.595.973-1.017 1.918-1.017zm-36.482 0c.754 0 1.246.121 1.75.23l-.109 1.21c-.49-.168-.85-.265-1.437-.265-.431 0-.948.154-.948.684 0 .982 2.793.359 2.793 2.588 0 1.438-1.284 2.013-2.588 2.013-.611 0-1.234-.11-1.821-.266l.095-1.32c.503.255 1.031.41 1.582.41.406 0 1.054-.155 1.054-.753 0-1.21-2.792-.386-2.792-2.613 0-1.33 1.162-1.918 2.421-1.918zm106.345-2.19c.72 0 1.39.095 2.002.3l-.156 1.375c-.526-.228-1.115-.357-1.701-.357-.576 0-1.318.248-1.318 1.16 0 1.449 3.667.84 3.667 3.644 0 1.83-1.451 2.528-3.14 2.528-.91 0-1.32-.122-2.145-.325l.156-1.51c.575.312 1.232.517 1.893.517.636 0 1.485-.325 1.485-1.08 0-1.592-3.665-.935-3.665-3.7 0-1.87 1.449-2.552 2.922-2.552zm-134.416-.48v8.983h-1.56v-.69h-.022c-.48.596-1.14.837-1.893.837-1.894 0-2.589-1.56-2.589-3.25 0-1.699.695-3.208 2.589-3.208.8 0 1.365.275 1.843.862h.025v-3.534h1.607zm77.687 0v3.606h.022c.443-.587 1.007-.934 1.844-.934 1.893 0 2.59 1.51 2.59 3.209 0 1.69-.697 3.25-2.59 3.25-.682 0-1.426-.242-1.891-.901h-.025v.753h-1.56v-8.983h1.61zm-141.344 2.671c.646 0 1.113.072 1.557.203l-.144 1.27c-.289-.13-.598-.227-1.09-.227-.995 0-1.631.792-1.631 1.952 0 1.14.541 2.013 1.667 2.013.456 0 .957-.165 1.232-.287l.073 1.332c-.465.142-.946.203-1.605.203-2.024 0-3.044-1.377-3.044-3.261 0-1.785 1.054-3.198 2.985-3.198zm30.61-2.671v8.983h-1.556v-.69h-.025c-.479.596-1.138.837-1.891.837-1.894 0-2.59-1.56-2.59-3.25 0-1.699.696-3.208 2.59-3.208.8 0 1.365.275 1.843.862h.025v-3.534h1.605zm-51.662.48c2.625 0 4.098 1.77 4.098 4.299 0 2.527-1.449 4.35-4.098 4.35-2.683 0-4.096-1.784-4.096-4.35 0-2.561 1.436-4.299 4.096-4.299zm204.496 0c2.625 0 4.098 1.77 4.098 4.299 0 2.527-1.45 4.35-4.098 4.35-2.683 0-4.098-1.784-4.098-4.35 0-2.561 1.438-4.299 4.098-4.299zm-11.718 2.19c2.288 0 2.936 1.571 2.936 3.728h-4.267c.072.993.767 1.558 1.762 1.558.778 0 1.449-.287 2.049-.626v1.307c-.589.325-1.257.492-2.121.492-2.038 0-3.223-1.173-3.223-3.2 0-1.785.946-3.258 2.864-3.258zm-60.048-1.606v1.75h1.424v1.174h-1.424v2.875c0 .528.14 1.022.754 1.022.286 0 .561-.063.73-.171l.048 1.27c-.336.097-.709.145-1.187.145-1.257 0-1.952-.779-1.952-2v-3.14h-1.187v-1.174h1.187v-1.232l1.607-.52zm-106.298 1.607c2.288 0 2.936 1.57 2.936 3.727h-4.267c.072.993.769 1.558 1.762 1.558.778 0 1.449-.287 2.049-.626v1.307c-.589.325-1.257.492-2.121.492-2.038 0-3.223-1.173-3.223-3.2 0-1.785.946-3.258 2.864-3.258zm128.463.146v3.294c0 .754.012 1.774 1.04 1.774 1.163 0 1.413-1.261 1.413-2.051v-3.017h1.607v6.167h-1.52v-.835h-.026c-.49.598-1.187.98-2.024.98-1.462 0-2.099-1.032-2.099-2.42v-3.892h1.61zm-113.273-.147c2.29 0 2.936 1.569 2.936 3.728h-4.265c.072.993.767 1.557 1.762 1.557.779 0 1.449-.286 2.047-.623v1.307c-.587.32-1.257.49-2.119.49-2.038 0-3.225-1.174-3.225-3.2 0-1.785.948-3.259 2.864-3.259zm142.792.147v3.294c0 .754.012 1.774 1.043 1.774 1.162 0 1.412-1.261 1.412-2.051v-3.017h1.607v6.167h-1.523v-.835h-.023c-.492.598-1.187.98-2.024.98-1.464 0-2.098-1.032-2.098-2.42v-3.892h1.606zm-95.405-.146c2.288 0 2.936 1.57 2.936 3.727h-4.267c.072.993.77 1.558 1.762 1.558.779 0 1.449-.287 2.049-.626v1.307c-.589.325-1.257.492-2.121.492-2.038 0-3.223-1.173-3.223-3.2 0-1.785.946-3.258 2.864-3.258zm48.895 0c2.29 0 2.936 1.568 2.936 3.727h-4.265c.072.993.767 1.557 1.76 1.557.778 0 1.45-.286 2.049-.623v1.307c-.587.32-1.257.49-2.121.49-2.036 0-3.223-1.174-3.223-3.2 0-1.785.946-3.259 2.864-3.259zm-81.939 0c2.29 0 2.936 1.568 2.936 3.727h-4.265c.072.993.767 1.557 1.76 1.557.778 0 1.451-.286 2.049-.623v1.307c-.587.32-1.257.49-2.121.49-2.036 0-3.223-1.174-3.223-3.2 0-1.785.946-3.259 2.864-3.259zm46.86.001c1.88 0 2.658.776 2.658 2.6v.79c0 .622.013 1.092.025 1.545.01.467.036.898.072 1.38h-1.413c-.06-.328-.06-.732-.072-.924h-.025c-.372.684-1.173 1.065-1.904 1.065-1.093 0-2.158-.659-2.158-1.832 0-.923.443-1.462 1.054-1.763.612-.297 1.401-.358 2.072-.358h.886c0-.993-.442-1.33-1.387-1.33-.684 0-1.368.265-1.907.673l-.048-1.379c.623-.29 1.463-.467 2.146-.467zm15.85 0c1.88 0 2.658.776 2.658 2.6v.79c0 .622.014 1.092.025 1.545.011.467.036.898.072 1.38H171.5c-.061-.328-.061-.732-.073-.924h-.024c-.373.684-1.174 1.065-1.905 1.065-1.092 0-2.157-.659-2.157-1.832 0-.923.442-1.462 1.056-1.763.61-.297 1.399-.358 2.07-.358h.888c0-.993-.444-1.33-1.39-1.33-.684 0-1.367.265-1.907.673l-.047-1.379c.623-.29 1.462-.467 2.146-.467zm-51.076 0c1.88 0 2.658.776 2.658 2.6v.79c0 .622.012 1.092.025 1.545.012.467.036.898.072 1.38h-1.412c-.061-.328-.061-.732-.075-.924h-.022c-.373.684-1.176 1.065-1.905 1.065-1.092 0-2.157-.659-2.157-1.832 0-.923.442-1.462 1.054-1.763.609-.297 1.401-.358 2.071-.358h.887c0-.993-.442-1.33-1.388-1.33-.683 0-1.367.265-1.906.673l-.048-1.379c.623-.29 1.462-.467 2.146-.467zm-54.754-2.815c.409 0 .862.059 1.174.129l-.131 1.331c-.145-.083-.348-.217-.695-.217-.54 0-.706.467-.706.946v.767h1.4v1.178h-1.4v4.996H62.36v-4.996h-1.185v-1.178h1.185v-.862c0-1.232.695-2.094 1.965-2.094zm212.45.764c1.821 0 3.487.528 3.487 2.527 0 1.957-1.424 2.663-3.223 2.663h-.706v3.173h-1.679v-8.363h2.121zm-10.338 0v1.318h-2.974v2.06h2.827v1.318h-2.827v3.667h-1.677v-8.363h4.651zm-178.09-.767c.406 0 .862.061 1.174.135l-.131 1.327c-.145-.083-.348-.212-.698-.212-.537 0-.704.465-.704.946v.765h1.402v1.173h-1.402v4.996h-1.606v-4.996h-1.187v-1.173h1.187v-.86c0-1.239.695-2.101 1.965-2.101zm-28.647 0c.408 0 .862.061 1.173.135l-.13 1.327c-.145-.083-.348-.212-.696-.212-.539 0-.706.465-.706.946v.765h1.401v1.173h-1.4v4.996h-1.608v-4.996h-1.184v-1.173h1.184v-.86c0-1.239.695-2.101 1.966-2.101zm165.222 2.96v6.169h-1.607v-6.17h1.607zm-109.438-.095v1.618c-.144-.084-.43-.136-.717-.136-1.257 0-1.305 1.51-1.307 2.414v2.368h-1.607v-6.17h1.427v1.402h.024c.073-.575.73-1.544 1.688-1.544.158 0 .325 0 .492.048zm-47.408.094v6.17H66.47v-6.17h1.607zm81.938-2.816v8.986h-1.607v-8.986h1.607zm71.397 0v8.986h-1.607v-8.986h1.607zm-96.27 0v8.986h-1.607v-8.986h1.607zm53.006 2.674c1.46 0 2.097 1.032 2.097 2.42v3.892h-1.607v-3.294c0-.754-.011-1.774-1.043-1.774-1.162 0-1.412 1.261-1.412 2.049v3.02h-1.607v-6.17h1.523v.837h.023c.503-.704 1.187-.98 2.026-.98zm-6.794 3.46h-.695c-.72 0-1.785.122-1.785 1.07 0 .524.442.754 1.018.754.49 0 .873-.217 1.126-.55.262-.348.336-.795.336-1.274zm-51.078 0h-.693c-.72 0-1.785.122-1.785 1.07 0 .524.443.754 1.018.754.49 0 .873-.217 1.126-.55.262-.348.334-.795.334-1.274zm35.225 0h-.692c-.72 0-1.785.122-1.785 1.07 0 .524.442.754 1.017.754.49 0 .874-.217 1.127-.55.261-.348.333-.795.333-1.274zm44.823-2.215c-1.03 0-1.438 1.1-1.438 1.965 0 .878.348 2.004 1.413 2.004 1.056 0 1.356-1.153 1.356-2.004 0-.826-.289-1.965-1.331-1.965zm29.078 0c-1.043 0-1.33 1.14-1.33 1.965 0 .851.298 2.004 1.354 2.004 1.066 0 1.413-1.126 1.413-2.004 0-.864-.406-1.965-1.437-1.965zm-14.076.001c-1.032 0-1.438 1.102-1.438 1.964 0 .875.348 2.001 1.413 2.001 1.054 0 1.354-1.15 1.354-2.001 0-.826-.29-1.964-1.33-1.964zm-115.238 0c-1.04 0-1.329 1.138-1.329 1.964 0 .85.3 2.001 1.354 2.001 1.065 0 1.413-1.126 1.413-2.001 0-.862-.406-1.964-1.438-1.964zm33.044 0c-1.04 0-1.329 1.138-1.329 1.964 0 .85.3 2.001 1.354 2.001 1.067 0 1.415-1.126 1.415-2.001 0-.862-.409-1.964-1.44-1.964zm-81.65-2.12c-1.666 0-2.348 1.51-2.348 2.982 0 1.507.634 3.033 2.347 3.033s2.35-1.526 2.35-3.033c0-1.471-.684-2.981-2.35-2.981zm204.495 0c-1.665 0-2.35 1.51-2.35 2.982 0 1.507.637 3.033 2.35 3.033s2.35-1.526 2.35-3.033c0-1.471-.685-2.981-2.35-2.981zM107.541 137.5c-.898 0-1.352.623-1.424 1.449h2.73c-.047-.779-.406-1.449-1.306-1.449zm136.813-.004c-.898 0-1.354.627-1.426 1.453h2.732c-.05-.779-.408-1.453-1.306-1.453zm-166.346 0c-.898 0-1.354.627-1.426 1.453h2.732c-.047-.779-.406-1.453-1.306-1.453zm111.472.004c-.899 0-1.352.623-1.424 1.449h2.73c-.047-.779-.406-1.449-1.306-1.449zm-48.895-.004c-.898 0-1.354.627-1.426 1.453h2.732c-.047-.779-.408-1.453-1.306-1.453zm-47.385.004c-.9 0-1.354.623-1.426 1.449h2.733c-.048-.779-.409-1.449-1.307-1.449zm183.718-1.908h-.584v2.555h.584c.84 0 1.596-.275 1.596-1.248 0-.968-.729-1.307-1.596-1.307zm-167.687-1.712l-1.64 1.75h-.996l.995-1.75h1.64zm-14.34 0l-1.644 1.75h-.995l.995-1.75h1.643zm96.279 0l-1.64 1.75h-.996l.995-1.75h1.64zm-123.093-.071v1.532H66.47v-1.532h1.607zm156.846 0v1.532h-1.607v-1.532h1.607zM91.689 120c1.862 0 2.636.77 2.636 2.573v.783c0 .618.01 1.083.022 1.534.011.463.036.89.072 1.363h-1.4c-.062-.318-.062-.722-.073-.911h-.023c-.368.677-1.164 1.058-1.889 1.058-1.078 0-2.137-.654-2.137-1.819 0-.912.44-1.45 1.048-1.744.602-.296 1.387-.359 2.05-.359h.88c0-.984-.44-1.318-1.378-1.318-.675 0-1.352.264-1.889.666l-.045-1.365c.616-.285 1.449-.46 2.126-.46zm-12.181 0c2.265 0 2.906 1.55 2.906 3.69h-4.226c.072.986.76 1.543 1.746 1.543.77 0 1.435-.284 2.031-.616v1.293c-.582.32-1.248.488-2.103.488-2.017 0-3.193-1.165-3.193-3.17 0-1.77.939-3.228 2.839-3.228zm109.226 0c2.268 0 2.909 1.55 2.909 3.69h-4.227c.073.986.76 1.543 1.747 1.543.772 0 1.435-.284 2.03-.616v1.293c-.581.32-1.247.488-2.102.488-2.018 0-3.193-1.165-3.193-3.17 0-1.77.938-3.228 2.836-3.228zm-41.958 0c2.268 0 2.91 1.55 2.91 3.69h-4.228c.075.986.76 1.543 1.747 1.543.772 0 1.435-.284 2.031-.616v1.293c-.582.32-1.248.488-2.103.488-2.018 0-3.193-1.165-3.193-3.17 0-1.77.938-3.228 2.836-3.228zm-37.86-1.593v1.733h1.412v1.164h-1.412v2.85c0 .521.142 1.009.747 1.009.286 0 .56-.061.724-.167l.047 1.26c-.331.094-.7.141-1.175.141-1.246 0-1.934-.772-1.934-1.981v-3.112h-1.176v-1.164h1.176v-1.221l1.59-.512zM85.849 120c.747 0 1.232.117 1.73.223l-.105 1.201c-.488-.167-.842-.262-1.424-.262-.43 0-.94.154-.94.677 0 .97 2.767.357 2.767 2.564 0 1.426-1.27 1.995-2.565 1.995-.605 0-1.221-.109-1.803-.26l.094-1.307c.5.251 1.023.402 1.567.402.403 0 1.044-.151 1.044-.747 0-1.198-2.766-.381-2.766-2.588 0-1.316 1.153-1.898 2.4-1.898zm67.267 0c.75 0 1.235.117 1.734.223l-.107 1.201c-.487-.167-.841-.262-1.423-.262-.43 0-.94.154-.94.677 0 .97 2.767.357 2.767 2.564 0 1.426-1.27 1.995-2.565 1.995-.605 0-1.221-.109-1.803-.26l.092-1.307c.499.251 1.022.402 1.568.402.404 0 1.045-.151 1.045-.747 0-1.198-2.766-.381-2.766-2.588 0-1.316 1.153-1.898 2.398-1.898zm45.544-1.592v1.733h1.415v1.164h-1.415v2.85c0 .521.145 1.009.75 1.009.286 0 .559-.061.724-.167l.047 1.26c-.332.094-.7.141-1.176.141-1.245 0-1.933-.772-1.933-1.981v-3.112h-1.176v-1.164h1.176v-1.221l1.588-.512zm-21.62-1.057v8.903h-1.543v-.686h-.025c-.474.59-1.126.83-1.875.83-1.875 0-2.563-1.546-2.563-3.218 0-1.686.688-3.182 2.563-3.182.797 0 1.356.273 1.828.858h.025v-3.505h1.59zm-101.796 0v8.903H73.7v-.686h-.025c-.473.59-1.126.83-1.875.83-1.875 0-2.563-1.546-2.563-3.218 0-1.686.688-3.182 2.563-3.182.797 0 1.354.273 1.828.858h.025v-3.505h1.59zm150.048.475c.961 0 1.722.131 2.432.343l-.106 1.402c-.64-.298-1.47-.438-2.137-.438-1.936 0-3.003 1.306-3.003 3.003 0 1.686 1.045 2.954 2.814 2.954.449 0 .805-.045 1.092-.115v-2.162h-1.758v-1.306h3.349v4.461c-.878.24-1.792.429-2.683.429-2.683 0-4.55-1.338-4.55-4.143 0-2.837 1.736-4.428 4.55-4.428zm-85.424 0c.961 0 1.721.131 2.432.343l-.106 1.402c-.64-.298-1.471-.438-2.137-.438-1.936 0-3.003 1.306-3.003 3.003 0 1.686 1.044 2.954 2.814 2.954.451 0 .808-.045 1.092-.115v-2.162h-1.756v-1.306h3.347v4.461c-.878.24-1.792.429-2.683.429-2.683 0-4.547-1.338-4.547-4.143 0-2.837 1.733-4.428 4.547-4.428zm18.283 2.315v3.263c0 .75.013 1.76 1.033 1.76 1.151 0 1.402-1.245 1.402-2.033v-2.99h1.59v6.113h-1.507v-.828h-.022c-.488.594-1.178.97-2.007.97-1.45 0-2.08-1.02-2.08-2.398v-3.857h1.59zm-101.797 0v3.263c0 .75.014 1.76 1.034 1.76 1.15 0 1.401-1.245 1.401-2.033v-2.99h1.59v6.113h-1.506v-.828h-.023c-.49.594-1.178.97-2.006.97-1.451 0-2.08-1.02-2.08-2.398v-3.857h1.59zm65.112 0v3.264c0 .749.011 1.758 1.031 1.758 1.151 0 1.402-1.246 1.402-2.029v-2.992h1.588v6.113h-1.505v-.83h-.025c-.485.593-1.175.97-2.006.97-1.448 0-2.078-1.02-2.078-2.394v-3.86h1.593zm95.183-2.172l3.252 8.289h-1.84l-.713-1.902h-3.36l-.722 1.902h-1.722l3.227-8.289h1.878zm-166.278-.001c1.07 0 2.672.31 2.672 2.128 0 .982-.666 1.672-1.65 1.85v.023c1.126.11 1.898.866 1.898 1.889 0 2.087-1.875 2.399-2.92 2.399h-2.896v-8.289h2.896zm157.49 0c1.07 0 2.672.31 2.672 2.128 0 .982-.663 1.672-1.65 1.85v.023c1.127.11 1.898.866 1.898 1.889 0 2.087-1.875 2.399-2.92 2.399h-2.895v-8.289h2.895zm-90.254-.759c.404 0 .855.059 1.164.131l-.13 1.318c-.143-.083-.346-.217-.691-.217-.533 0-.7.465-.7.937v.763h1.39v1.164h-1.39v4.951h-1.59v-4.95h-1.176v-1.165h1.175v-.858c0-1.22.689-2.074 1.948-2.074zm77.089 2.933v6.113h-1.591v-6.113h1.59zm-64.243-.145c.154 0 .32 0 .485.05v1.602c-.142-.084-.426-.131-.71-.131-1.244 0-1.294 1.489-1.296 2.385v2.351h-1.59v-6.113h1.412v1.39h.022c.073-.57.727-1.534 1.677-1.534zm37.078 0c1.449 0 2.078 1.022 2.078 2.4v3.857h-1.59v-3.263c0-.747-.014-1.757-1.034-1.757-1.153 0-1.402 1.245-1.402 2.03v2.99h-1.59v-6.113h1.507v.83h.022c.501-.699 1.176-.974 2.009-.974zm-101.797 0c1.449 0 2.079 1.022 2.079 2.4v3.857h-1.591v-3.263c0-.747-.014-1.757-1.034-1.757-1.15 0-1.401 1.245-1.401 2.03v2.99h-1.591v-6.113h1.507v.83h.025c.499-.699 1.176-.974 2.006-.974zm37.353 0c1.507 0 1.936 1.036 1.936 2.4v3.857h-1.593v-3.644c0-.569 0-1.376-.914-1.376-1.056 0-1.187 1.259-1.187 2.053v2.967h-1.591v-3.644c0-.569 0-1.376-.912-1.376-1.058 0-1.19 1.259-1.19 2.053v2.967h-1.59v-6.113h1.483v.856h.024c.5-.747 1.223-1 1.817-1 .855 0 1.46.323 1.805 1.083.368-.736 1.165-1.083 1.912-1.083zm77.36-2.646v3.62h.023c.406-.591 1.095-.973 1.925-.973 1.449 0 2.078 1.023 2.078 2.397v3.859h-1.59v-3.261c0-.75-.014-1.758-1.034-1.758-1.151 0-1.402 1.243-1.402 2.029v2.99h-1.59v-8.903h1.59zm-87.571 6.078h-.69c-.711 0-1.77.12-1.77 1.058 0 .522.442.747 1.011.747.488 0 .867-.214 1.115-.546.262-.345.334-.783.334-1.259zm81.136-2.196c-1.031 0-1.318 1.128-1.318 1.947 0 .844.298 1.984 1.343 1.984 1.058 0 1.401-1.115 1.401-1.984 0-.855-.403-1.947-1.426-1.947zm-101.794 0c-1.034 0-1.32 1.128-1.32 1.947 0 .844.297 1.984 1.342 1.984 1.056 0 1.402-1.115 1.402-1.984 0-.855-.404-1.947-1.424-1.947zm135.194 1.32h-.785v2.397h.785c.77 0 1.708-.192 1.708-1.153 0-1.079-.88-1.244-1.708-1.244zm-157.493 0h-.783v2.397h.783c.772 0 1.709-.192 1.709-1.153 0-1.079-.878-1.244-1.709-1.244zm165.768-2.923h-.024l-1.199 3.421h2.422l-1.199-3.42zm-26.858 1.533c-.89 0-1.34.616-1.413 1.436h2.708c-.047-.772-.404-1.436-1.295-1.436zm-109.229 0c-.889 0-1.34.616-1.412 1.436h2.708c-.048-.772-.404-1.436-1.296-1.436zm67.271 0c-.889 0-1.338.616-1.413 1.436h2.708c-.047-.772-.404-1.436-1.295-1.436zm60.517-1.888h-.761v2.042h.677c.7 0 1.566-.156 1.566-1.011 0-.909-.755-1.021-1.482-1.03zm-157.49 0h-.762v2.042h.677c.7 0 1.566-.156 1.566-1.011 0-.909-.755-1.021-1.481-1.03zm74.7-1.627v1.377h-1.376v-1.377h1.376zm70.098-.142v1.519h-1.591v-1.519h1.59zm-72.544.14v1.376h-1.376v-1.376h1.376z"/>
    </g>
</svg>
