<svg xmlns="http://www.w3.org/2000/svg" width="32" height="23" viewBox="0 0 32 23">
    <g>
        <path fill="#ffffff" d="M12.764.053c-.27-.024-.544-.039-.818-.05C5.497-.142.15 4.888.003 11.238c-.147 6.35 4.962 11.614 11.41 11.759.53.012 1.06-.011 1.587-.068l-.038-3.488c-3.052.475-6.115-.788-7.913-3.263-1.798-2.475-2.023-5.737-.581-8.428C5.91 5.059 8.77 3.4 11.86 3.463c.315.006.629.031.94.076L12.765.053zM30.522 19.537c-3.71-.093-6.895-2.621-7.764-6.164l6.79.02V9.697l-6.826-.021c.875-3.711 4.287-6.306 8.165-6.21.314.006.628.031.939.074L31.798.051c-.271-.024-.544-.04-.822-.048-4.183-.093-8.1 2.013-10.272 5.524-2.174 3.51-2.274 7.893-.264 11.496 2.01 3.604 5.825 5.88 10.008 5.973.512.013 1.024-.006 1.534-.057L32 19.445c-.489.075-.983.106-1.478.092z"/>
    </g>
</svg>
