<svg xmlns="http://www.w3.org/2000/svg" width="121" height="36" viewBox="0 0 121 36">
    <g fill="red">
        <path d="M0 14.871L7.521 14.871 7.521 7.106 25.228 7.106 25.228.658 0 .658zM0 35.532L25.228 35.532 25.228 29.084 7.521 29.084 7.521 21.319 0 21.319zM7.521 14.871L23.714 14.871 23.714 21.319 7.521 21.319zM56.588 3.862c-1.07-1.027-2.343-1.818-3.737-2.322C51.055.908 49.16.609 47.258.658H31.676v34.874h7.521V21.319h8.06c1.894.046 3.78-.253 5.567-.882 1.404-.5 2.687-1.292 3.764-2.322.936-.927 1.653-2.05 2.099-3.29.877-2.473.877-5.173 0-7.646-.444-1.248-1.161-2.381-2.099-3.317zm-5.264 9.12c-.386.516-.898.924-1.487 1.185-.685.293-1.41.481-2.152.559-.843.1-1.69.148-2.54.145h-5.948V7.106h5.955c.849-.003 1.697.046 2.54.145.742.077 1.468.268 2.151.566.588.257 1.099.663 1.481 1.178.394.58.593 1.272.566 1.974.035.715-.163 1.422-.566 2.013zM102.299 29.084L102.299.658 94.778.658 94.778 35.532 120.006 35.532 120.006 29.084zM64.102 14.871L71.623 14.871 71.623 7.106 89.33 7.106 89.33.658 64.102.658zM64.102 21.319L71.623 21.319 71.623 35.532 64.102 35.532zM71.623 14.871L87.817 14.871 87.817 21.319 71.623 21.319z"/>
    </g>
</svg>
