<svg xmlns="http://www.w3.org/2000/svg" width="192" height="32" viewBox="0 0 192 32">
    <path fill="#FFF" d="M70.122 12h-6.931l2.434-12H6.981L.787 31h23.379l1.59-8H11.941l.79-4h13.824l1.403-7H14.166l.788-4h21.952l-4.595 23h9.533l4.593-23h8.003l-4.593 23h9.606l2.377-12h6.929l-2.375 12h9.56l6.198-31h-9.586l-2.434 12zm40.902-8h3.189l.79-4h-3.174l-.805 4zm8.179 0h3.191l.788-4h-3.174l-.805 4zm29.828 0h3.189l.792-4h-3.176l-.805 4zm15.963 5.908c-5.565 0-9.47 3.94-10.72 10.812-.197 1.076-.297 2.167-.3 3.26 0 4.694 2.833 7.612 7.401 7.612 2.642.007 5.173-1.063 7.009-2.962l.028-.03-1.769-2.168-.032-.038-.034.036c-1.223 1.531-3.075 2.423-5.034 2.426-2.177 0-4.504-1.306-4.504-4.962.008-1.06.12-2.118.336-3.156.327-2.228 1.266-4.322 2.712-6.048 1.18-1.3 2.853-2.04 4.608-2.042 1.699-.077 3.29.83 4.089 2.332l.026.042 2.252-1.912.032-.028-.024-.034c-1.318-2.058-3.635-3.255-6.076-3.14zm20.354-.449c-2.264-.112-4.465.76-6.038 2.392L181.702 0h-3.084l-6.196 31h3.084l2.572-13.023c1.102-5.488 5.36-5.766 6.2-5.766 1.015-.103 2.023.25 2.75.965.729.714 1.1 1.716 1.016 2.732-.015.661-.088 1.32-.216 1.968L185.212 31h3.08l2.706-13.409c.14-.696.212-1.405.216-2.115.112-1.601-.464-3.174-1.585-4.323-1.12-1.15-2.678-1.766-4.281-1.694zm-41.577 21.49l-.01.052h3.041l4.15-21h-2.99l-4.191 20.948zM87.999 12.944l-.009.057h10.322L84.703 28.466l-.006.008-.511 2.527h14.657l.577-3H88.463l13.649-15.465.006-.01.513-2.525H88.569l-.57 2.943zm50.709-3.199c-2.226-.058-4.35.926-5.745 2.662l.472-2.359.008-.047h-3l-4.147 20.948-.008.052h3.045l2.536-12.85c.649-3.295 3.168-5.688 5.994-5.688 1.156-.028 2.25.522 2.919 1.466l.03.038 2.469-2.224-.024-.03c-1.132-1.321-2.81-2.047-4.549-1.968zm-18.369.256h3.084l-.008.05-4.144 20.95h-3.001l.01-.052.397-2.18c-1.553 1.678-3.767 2.587-6.051 2.484-1.581.07-3.118-.537-4.222-1.672-1.104-1.134-1.671-2.686-1.558-4.265.009-.639.081-1.275.217-1.899l.035-.19 2.622-13.226h3.043l-.01.05-2.577 12.898c-.123.64-.192 1.289-.207 1.94-.079 1.008.295 2 1.02 2.705.726.705 1.727 1.05 2.733.943.825 0 4.989-.276 6.076-5.693l2.541-12.843z"/>
</svg>
