<svg xmlns="http://www.w3.org/2000/svg" width="176" height="35" viewBox="0 0 176 35">
    <g fill="#FFF">
        <g>
            <path fill-opacity=".8" d="M24.529 6.755L35.523 13.96 25.057 29.43 33.32 33.438 46.469 24.9 45.345 9.436 31.068 2.51z" transform="translate(129.077)"/>
            <path fill-opacity=".5" d="M0.041 20.996L21.36 34.976 25.104 29.436 19.1 26.522 17.976 11.07 24.577 6.781 14.236 0z" transform="translate(129.077)"/>
        </g>
        <path d="M65.72 7.234c2.316 0 4.316.83 6.068 2.49l.164.157V7.772h4.963v27.204h-4.963v-9.762c-1.754 1.691-3.62 2.574-6.12 2.574-5.038 0-9.442-4.265-9.442-10.259 0-6.103 4.18-10.295 9.33-10.295zM27.327 0v9.881c1.791-1.765 3.844-2.647 6.232-2.647 5.113 0 9.367 4.192 9.367 10.295 0 5.994-4.44 10.259-9.479 10.259-2.424 0-4.217-.83-5.957-2.422l-.163-.152v2.06h-4.963V0h4.963zm86.094 7.234c6.27 0 10.524 4.412 10.524 10.59 0 .386-.03.603-.036.947l-.002.156h-15.972c.485 2.904 2.724 4.522 5.56 4.522 2.059 0 3.453-.55 4.793-1.786l.133-.126 4.18 1.949c-2.127 2.978-4.926 4.302-9.106 4.302-6.306 0-10.374-4.56-10.374-10.295 0-5.332 3.918-10.26 10.3-10.26zM4.973 7.772v10.186c0 3.493 1.12 5.331 3.732 5.331 2.65 0 3.732-1.802 3.732-5.11V7.771H17.4v9.243c-.01 3.484-.27 6.066-2.313 8.296-1.568 1.728-3.62 2.464-6.382 2.464-4.777 0-7.725-2.39-8.509-6.95-.26-1.58-.186-2.5-.186-4.118V7.772h4.963zm81.879 0v10.186c0 3.493 1.12 5.331 3.732 5.331 2.65 0 3.732-1.802 3.732-5.11V7.771h4.963v9.009c0 3.603-.224 6.25-2.314 8.53-1.567 1.728-3.62 2.464-6.381 2.464-4.777 0-7.725-2.39-8.509-6.95-.261-1.58-.186-2.5-.186-4.118V7.772h4.963zm-34.712 0v19.432h-4.964V7.772h4.964zM32.552 11.72c-3.172 0-5.449 2.316-5.449 5.736 0 3.53 2.388 5.846 5.449 5.846 3.097 0 5.373-2.463 5.373-5.81 0-3.198-2.09-5.772-5.373-5.772zm34.175 0c-3.284 0-5.336 2.574-5.336 5.773 0 3.346 2.239 5.809 5.336 5.809 3.06 0 5.449-2.28 5.449-5.846 0-3.42-2.314-5.736-5.449-5.736zm46.768-.331c-2.41 0-4.283 1.161-5.272 3.518l-.064.159h10.785c-.672-2.28-2.8-3.677-5.449-3.677zM52.14 0v4.89h-4.964V0h4.964z"/>
    </g>
</svg>
