<svg xmlns="http://www.w3.org/2000/svg" width="178" height="37" viewBox="0 0 178 37">
    <g fill="none" fill-rule="evenodd">
        <g>
            <path fill="#1B3A59" d="M24.661 6.893L35.715 14.245 25.192 30.031 33.5 34.12 46.719 25.408 45.589 9.629 31.235 2.561z" transform="translate(130.54 .63)"/>
            <path fill="#2E8AE6" d="M0.041 21.424L21.475 35.69 25.239 30.037 19.203 27.063 18.073 11.296 24.709 6.92 14.312 0z" transform="translate(130.54 .63)"/>
        </g>
        <path fill="#000" d="M66.84 8.012c2.292 0 4.277.821 6.019 2.462l.247.24V8.562h4.99v27.759h-4.99V26.36c-1.763 1.726-3.64 2.626-6.153 2.626-5.065 0-9.493-4.352-9.493-10.468 0-6.228 4.202-10.506 9.38-10.506zM28.24.631v10.083c1.801-1.801 3.865-2.702 6.266-2.702 5.14 0 9.418 4.278 9.418 10.506 0 6.116-4.465 10.468-9.53 10.468-2.405 0-4.192-.824-5.918-2.406l-.236-.22v2.1h-4.99V.63h4.99zm86.558 7.381c6.304 0 10.58 4.503 10.58 10.806 0 .36-.023.576-.033.879l-.004.247h-16.058c.488 2.964 2.739 4.615 5.59 4.615 2.032 0 3.42-.542 4.744-1.754l.209-.197 4.202 1.988c-2.138 3.04-4.952 4.39-9.155 4.39-6.34 0-10.43-4.652-10.43-10.506 0-5.44 3.94-10.468 10.355-10.468zm-109.032.55v10.393c0 3.564 1.126 5.44 3.752 5.44 2.664 0 3.752-1.838 3.752-5.215V8.562h4.99v9.192c0 3.677-.225 6.379-2.326 8.705-1.576 1.763-3.64 2.514-6.416 2.514-4.802 0-7.766-2.439-8.554-7.091C.7 20.268.776 19.33.776 17.679V8.562h4.99zm82.32 0v10.393c0 3.564 1.126 5.44 3.752 5.44 2.664 0 3.752-1.838 3.752-5.215V8.562h4.99v9.192c0 3.677-.225 6.379-2.326 8.705-1.576 1.763-3.64 2.514-6.416 2.514-4.802 0-7.766-2.439-8.554-7.091-.263-1.614-.188-2.552-.188-4.203V8.562h4.99zm-34.899 0V28.39h-4.99V8.562h4.99zM33.493 12.59c-3.189 0-5.478 2.364-5.478 5.853 0 3.602 2.402 5.966 5.478 5.966 3.114 0 5.403-2.514 5.403-5.929 0-3.264-2.101-5.89-5.403-5.89zm34.36 0c-3.302 0-5.365 2.626-5.365 5.89 0 3.415 2.251 5.929 5.365 5.929 3.077 0 5.478-2.327 5.478-5.966 0-3.49-2.326-5.853-5.478-5.853zm47.02-.338c-2.39 0-4.257 1.154-5.26 3.497l-.105.255h10.843c-.675-2.326-2.814-3.752-5.478-3.752zM53.187.631v4.99h-4.99V.631h4.99z"/>
    </g>
</svg>
