<svg xmlns="http://www.w3.org/2000/svg" width="110" height="27" viewBox="0 0 110 27">
    <g fill="none" fill-rule="evenodd">
        <path fill="#000" d="M11.055 7.062H8.61v9.887c-.634 1.015-1.657 1.522-3.069 1.522-2.064 0-3.096-1.449-3.096-4.346V7.062H0v7.742c0 3.893 1.639 5.84 4.916 5.84 1.63 0 2.861-.58 3.694-1.738l.272 1.466h2.173V7.062zm12.21 13.039c.733-.362 1.37-.856 1.914-1.48.544-.626.969-1.359 1.277-2.2.307-.843.462-1.744.462-2.704 0-.923-.146-1.806-.435-2.648-.29-.842-.697-1.58-1.222-2.214-.526-.634-1.16-1.136-1.902-1.507s-1.557-.557-2.444-.557c-1.811 0-3.188.57-4.13 1.71V0h-2.444v20.372h2.173l.272-1.684c.217.308.493.584.828.829.335.244.693.448 1.073.61.38.164.76.29 1.141.38.38.091.734.137 1.06.137.85 0 1.643-.181 2.376-.543zm-1.1-10.77c.47.244.873.58 1.208 1.005.335.425.593.928.774 1.507.18.58.272 1.204.272 1.874 0 .634-.091 1.24-.272 1.82-.181.58-.435 1.087-.76 1.521-.326.435-.725.78-1.196 1.033-.47.253-.996.38-1.575.38-.543 0-1.055-.1-1.535-.299-.48-.199-.9-.498-1.263-.896-.362-.398-.647-.897-.855-1.494-.209-.598-.313-1.286-.313-2.065 0-.76.109-1.435.326-2.023.218-.589.507-1.087.87-1.494.361-.408.782-.715 1.262-.924.48-.208.982-.312 1.508-.312.561 0 1.077.122 1.548.366zm7.279-5.256h2.444V1.358h-2.444v2.717zm0 16.297h2.444V7.062h-2.444v13.31zm12.046.136c.39-.09.774-.222 1.154-.394.38-.172.743-.38 1.087-.625.344-.244.625-.511.842-.801v8.257h2.444V7.062h-1.9l-.272 1.902c-.616-.743-1.259-1.29-1.93-1.644-.67-.353-1.52-.53-2.552-.53-.906 0-1.721.187-2.445.558-.724.371-1.344.873-1.86 1.507-.517.634-.915 1.367-1.196 2.2-.28.833-.42 1.721-.42 2.662 0 .996.126 1.92.38 2.77.253.852.633 1.586 1.14 2.201.507.616 1.132 1.096 1.874 1.44.743.343 1.594.516 2.554.516.344 0 .71-.046 1.1-.136zm.692-11.218c.49.217.92.53 1.29.937.372.407.67.906.897 1.494.227.589.34 1.254.34 1.996 0 .76-.109 1.44-.326 2.037-.218.598-.507 1.096-.87 1.495-.362.398-.792.702-1.29.91-.498.208-1.018.312-1.562.312-.58 0-1.095-.123-1.548-.367-.453-.244-.842-.575-1.168-.991-.326-.417-.575-.914-.747-1.494-.172-.58-.258-1.213-.258-1.902 0-.706.086-1.349.258-1.928.172-.58.421-1.078.747-1.494.326-.417.715-.743 1.168-.978.453-.235.969-.353 1.548-.353.526 0 1.033.108 1.521.326zm18.96-2.228h-2.445v9.887c-.634 1.015-1.657 1.522-3.07 1.522-2.063 0-3.096-1.449-3.096-4.346V7.062h-2.444v7.742c0 3.893 1.638 5.84 4.916 5.84 1.63 0 2.861-.58 3.694-1.738l.272 1.466h2.173V7.062zm14.695 5.352c0-.87-.14-1.653-.421-2.35-.281-.697-.67-1.29-1.168-1.78-.499-.488-1.1-.86-1.807-1.113-.706-.253-1.485-.38-2.336-.38-.996 0-1.897.176-2.702.53-.806.353-1.49.833-2.051 1.44-.562.606-.996 1.326-1.304 2.159-.308.833-.462 1.73-.462 2.689 0 .996.163 1.924.489 2.784.326.86.797 1.602 1.413 2.227.615.625 1.371 1.119 2.268 1.48.896.363 1.905.544 3.028.544 1.395 0 2.88-.344 4.455-1.032l-.326-1.93c-1.195.527-2.472.789-3.83.789-3.042 0-4.708-1.584-4.998-4.754h9.643c.072-.362.109-.796.109-1.303zm-3.341-2.649c.543.535.815 1.29.815 2.268h-7.008c.524-2.046 1.774-3.07 3.748-3.07 1.086 0 1.901.268 2.445.802z"/>
        <path fill="#273C56" d="M101.164 3.792L97.449 6.243 103.696 10.402 97.749 19.333 102.443 21.647 109.914 16.718 109.275 7.79z"/>
        <path fill="#0080FF" d="M97.749 19.333L94.332 17.649 93.693 8.721 97.449 6.243 91.564 2.324 83.486 14.456 95.618 22.534z"/>
    </g>
</svg>
